<svg width="340" height="485" viewBox="0 0 340 485" fill="none" xmlns="http://www.w3.org/2000/svg">

    <text x="50%" y="410" dominant-baseline="middle" text-anchor="middle" fill="black" style="font-size: 18px; font-family: 'Arial'"></text>
    <text x="50%" y="440" dominant-baseline="middle" text-anchor="middle" fill="grey" style="font-size: 14px; font-family: 'Arial'"></text>

    <!-- Head sign -->
    <path fill="#000" d="m70.02 112.108 2.91.918c-.447 1.617-1.19 2.819-2.23 3.606-1.035.782-2.35 1.173-3.945 1.173-1.973 0-3.595-.671-4.866-2.011-1.27-1.346-1.906-3.185-1.906-5.514 0-2.465.64-4.378 1.916-5.738 1.278-1.367 2.957-2.05 5.039-2.05 1.818 0 3.295.535 4.43 1.606.676.633 1.183 1.542 1.52 2.727l-2.97.707c-.175-.768-.544-1.374-1.105-1.818-.554-.445-1.23-.667-2.027-.667-1.102 0-1.997.394-2.687 1.182-.682.788-1.024 2.064-1.024 3.828 0 1.872.338 3.205 1.014 4 .676.795 1.555 1.192 2.636 1.192.798 0 1.484-.253 2.058-.758.575-.505.987-1.299 1.237-2.383Zm5.01-5.283h2.838v4.383c.474-.054.808-.198 1.004-.434.196-.236.433-.751.71-1.545.365-1.057.764-1.734 1.196-2.03.433-.297 1-.445 1.703-.445.216 0 .592.017 1.125.051l.01 1.878c-.75 0-1.23.071-1.439.212-.21.149-.436.59-.68 1.324-.33.989-.807 1.599-1.429 1.828.9.249 1.66 1.027 2.281 2.333.034.068.071.138.112.212l1.591 2.96h-3.061l-1.42-3.101c-.29-.626-.543-1.027-.76-1.202-.21-.182-.524-.273-.943-.273v4.576H75.03v-10.727Zm12.289 3.272-2.585-.464c.29-1.037.79-1.805 1.5-2.303s1.764-.748 3.163-.748c1.27 0 2.217.152 2.839.455.621.296 1.057.677 1.307 1.141.257.458.386 1.303.386 2.535l-.03 3.313c0 .944.043 1.64.131 2.091.095.445.267.923.517 1.435H91.73a10.383 10.383 0 0 1-.274-.839 5.195 5.195 0 0 0-.101-.333 5.15 5.15 0 0 1-1.562 1.061 4.497 4.497 0 0 1-1.774.353c-1.108 0-1.983-.299-2.625-.899-.636-.599-.953-1.357-.953-2.272 0-.606.145-1.145.436-1.617.29-.478.696-.841 1.216-1.09.527-.256 1.284-.478 2.271-.667 1.331-.25 2.254-.482 2.768-.697v-.283c0-.545-.135-.933-.406-1.161-.27-.236-.78-.354-1.53-.354-.508 0-.903.101-1.187.303-.284.195-.513.542-.69 1.04Zm3.812 2.304c-.365.12-.943.265-1.734.433-.79.169-1.308.334-1.551.496-.372.262-.558.596-.558 1 0 .397.15.74.447 1.03.297.289.675.434 1.135.434.514 0 1.004-.168 1.47-.505.345-.256.571-.569.68-.939.074-.243.11-.704.11-1.384v-.565Zm5.151-5.576h2.85v3.929h4.075v-3.929h2.859v10.727h-2.859v-4.505h-4.076v4.505h-2.849v-10.727Zm12.239 0h2.737v6.737l4.38-6.737h2.798v10.727h-2.738v-6.859l-4.44 6.859h-2.737v-10.727Zm12.41 0h2.657v1.576a3.965 3.965 0 0 1 1.399-1.314 3.873 3.873 0 0 1 1.956-.505c1.251 0 2.312.489 3.184 1.465.871.976 1.307 2.336 1.307 4.081 0 1.791-.439 3.185-1.318 4.181-.878.99-1.943 1.485-3.193 1.485a3.681 3.681 0 0 1-1.622-.353c-.48-.236-.987-.64-1.521-1.213v5.404h-2.849v-14.807Zm2.819 5.181c0 1.206.24 2.098.72 2.677.479.573 1.064.859 1.753.859.663 0 1.214-.263 1.653-.788.439-.532.659-1.401.659-2.606 0-1.125-.227-1.96-.679-2.505-.453-.546-1.014-.818-1.683-.818-.696 0-1.274.269-1.734.808-.459.532-.689 1.323-.689 2.373Zm7.97-5.181h3.031l2.575 7.616 2.515-7.616h2.949l-3.801 10.323-.679 1.869c-.251.625-.49 1.104-.72 1.434a2.939 2.939 0 0 1-.781.797c-.29.209-.652.371-1.085.485a5.56 5.56 0 0 1-1.449.172 7.536 7.536 0 0 1-1.612-.172l-.254-2.222c.446.088.849.131 1.207.131.662 0 1.152-.195 1.47-.585.317-.384.561-.876.73-1.475l-4.096-10.757Zm12.482 0h2.737v6.737l4.379-6.737h2.798v10.727h-2.737v-6.859l-4.44 6.859h-2.737v-10.727Zm6.823-4.354h1.388c-.081.916-.405 1.637-.973 2.162-.561.518-1.291.778-2.189.778-.899 0-1.633-.26-2.201-.778-.561-.525-.881-1.246-.963-2.162h1.389c.048.478.216.842.507 1.091.291.243.713.364 1.268.364.553 0 .976-.121 1.267-.364.29-.249.459-.613.507-1.091Zm4.391 4.354h9.742v2.293h-3.447v8.434h-2.848v-8.434h-3.447v-2.293Zm17.337 7.313 2.839.474c-.365 1.037-.943 1.828-1.733 2.374-.784.539-1.768.808-2.95.808-1.873 0-3.258-.609-4.157-1.828-.71-.976-1.065-2.209-1.065-3.697 0-1.777.467-3.168 1.4-4.172.932-1.01 2.112-1.515 3.537-1.515 1.602 0 2.867.529 3.792 1.586.926 1.051 1.369 2.663 1.329 4.838h-7.138c.02.842.25 1.499.69 1.97.439.465.987.697 1.642.697.446 0 .821-.122 1.125-.364.305-.242.534-.632.689-1.171Zm.162-2.869c-.02-.821-.232-1.444-.638-1.869a1.96 1.96 0 0 0-1.48-.646c-.622 0-1.136.226-1.541.677-.406.451-.605 1.064-.598 1.838h4.257Zm10.163-4.444h2.737v6.737l4.379-6.737h2.798v10.727h-2.737v-6.859l-4.44 6.859h-2.737v-10.727Zm17.805 0h9.561v10.727h-2.849v-8.434h-3.863v8.434h-2.849v-10.727Zm13.08 0h9.54v10.727h-2.839v-8.424h-3.883v4.818c0 1.225-.141 2.087-.425 2.586-.284.491-.599.814-.943.969-.345.155-.899.232-1.662.232-.454 0-1.052-.06-1.795-.181v-2.091c.061 0 .219.007.477.02.297.02.527.03.689.03.385 0 .622-.124.71-.373.088-.256.131-.96.131-2.112v-6.201Zm14.205 3.272-2.585-.464c.291-1.037.791-1.805 1.501-2.303.709-.498 1.764-.748 3.163-.748 1.27 0 2.216.152 2.838.455.622.296 1.058.677 1.308 1.141.257.458.385 1.303.385 2.535l-.03 3.313c0 .944.044 1.64.132 2.091.094.445.267.923.517 1.435h-2.819a10.91 10.91 0 0 1-.274-.839 5.215 5.215 0 0 0-.101-.333 5.157 5.157 0 0 1-1.561 1.061 4.498 4.498 0 0 1-1.774.353c-1.109 0-1.984-.299-2.626-.899-.636-.599-.953-1.357-.953-2.272 0-.606.146-1.145.436-1.617a2.81 2.81 0 0 1 1.216-1.09c.528-.256 1.285-.478 2.271-.667 1.332-.25 2.254-.482 2.768-.697v-.283c0-.545-.135-.933-.405-1.161-.271-.236-.781-.354-1.531-.354-.507 0-.902.101-1.187.303-.283.195-.513.542-.689 1.04Zm3.812 2.304c-.365.12-.943.265-1.733.433-.791.169-1.308.334-1.552.496-.371.262-.557.596-.557 1 0 .397.149.74.446 1.03.297.289.676.434 1.135.434.514 0 1.004-.168 1.471-.505.344-.256.57-.569.679-.939.074-.243.111-.704.111-1.384v-.565Zm3.986-5.576h9.743v2.293h-3.447v8.434h-2.849v-8.434h-3.447v-2.293Zm11.032 0h2.737v6.737l4.38-6.737h2.798v10.727h-2.737v-6.859l-4.441 6.859h-2.737v-10.727Zm11.215 0h9.742v2.293h-3.447v8.434h-2.849v-8.434h-3.446v-2.293Zm17.337 7.313 2.838.474c-.364 1.037-.943 1.828-1.733 2.374-.784.539-1.767.808-2.95.808-1.872 0-3.258-.609-4.157-1.828-.71-.976-1.064-2.209-1.064-3.697 0-1.777.466-3.168 1.399-4.172.932-1.01 2.112-1.515 3.538-1.515 1.602 0 2.866.529 3.792 1.586.925 1.051 1.368 2.663 1.328 4.838h-7.138c.021.842.25 1.499.69 1.97.439.465.987.697 1.642.697.446 0 .822-.122 1.125-.364.305-.242.535-.632.69-1.171Zm.162-2.869c-.02-.821-.233-1.444-.639-1.869a1.958 1.958 0 0 0-1.48-.646c-.621 0-1.135.226-1.541.677-.405.451-.605 1.064-.597 1.838h4.257Z" />
    <path fill="#F13C33" fill-rule="evenodd" d="M70.1 36c.155 0 .28.12.29.272v2.36a.288.288 0 0 1-.273.287h-5.954v5.916c0 .148-.112.27-.257.286l-.016.001h-2.368a.29.29 0 0 1-.29-.271v-6.21a2.646 2.646 0 0 1 2.56-2.64h.043l.049-.001H70.1Zm12.885 6.202c.241 0 .438.19.448.427v15.044c0 .24-.19.436-.429.446H67.905a.447.447 0 0 1-.448-.427V44.939a2.713 2.713 0 0 1 2.667-2.736h12.861Zm0 18.314c.233 0 .425.176.446.407l.002.019v2.494H70.387v10.077h10.115v-7.68h2.931v10.154a.447.447 0 0 1-.408.444l-.02.002H70.17a2.711 2.711 0 0 1-2.711-2.648l-.001-.045V60.962c0-.23.176-.422.408-.444l.019-.001h15.1Zm10.976 12.998V65.54H91.03v5.317h-5.19v5.151c.01.237.207.426.448.426h2.483v-2.658h5.074v2.658h5.305a2.713 2.713 0 0 0 2.668-2.737v-5.5h-5.6v2.92h2.669v2.397H93.96Zm-30.087-.001c.154 0 .28.12.289.272v5.931h5.789a.29.29 0 0 1 .288.256l.001.016v2.359c0 .154-.12.28-.273.288h-6.084c-1.431 0-2.6-1.13-2.65-2.549l-.001-.043v-6.242c0-.153.12-.28.272-.288h2.369Zm43.882 0c.154 0 .28.12.289.272v6.209a2.646 2.646 0 0 1-2.559 2.64l-.043.001h-6.266a.29.29 0 0 1-.289-.271v-2.36a.29.29 0 0 1 .273-.288h5.953V73.8c0-.148.112-.27.257-.286l.016-.002h2.369Zm-29.21-8.122v6.168h-6.193v-6.168h6.193Zm15.266-1.955v-2.92H86.27a.447.447 0 0 0-.428.446v7.496h2.931v-5.022h5.04Zm8.006-2.493a.447.447 0 0 0-.447-.427h-2.483v2.659h-2.669v2.92h2.931v-2.659h2.669v-2.474l-.001-.019Zm-.002-16.093a2.71 2.71 0 0 0-2.71-2.648H86.268l-.02.002a.447.447 0 0 0-.408.444v15.045l.002.02c.022.23.214.406.446.406h2.483V45.122h10.115V55.2h-2.372v2.92h4.875l.02-.002a.447.447 0 0 0 .408-.444V44.895l-.002-.045ZM94.108 55.2v2.919h-2.93v-2.92h2.93ZM70.39 45.121h10.115V55.2H70.39V45.122Zm8.157 1.954v6.169h-6.193v-6.169h6.193Zm18.384 6.169v-6.169h-6.192v6.169h6.192Zm11.113-14.695a2.646 2.646 0 0 0-2.649-2.55h-6.233a.289.289 0 0 0-.273.288v2.36l.001.016a.29.29 0 0 0 .288.256h5.937v5.914l.001.017a.288.288 0 0 0 .289.272h2.368a.289.289 0 0 0 .273-.288v-6.242l-.002-.044Z" clip-rule="evenodd" />
    <path fill="#000" d="M123.445 73.81V48.185h5.193v11.38l10.491-11.38h6.983l-9.685 9.981 10.211 15.644h-6.719l-7.07-12.026-4.211 4.283v7.743h-5.193Zm28.825-12.9-4.473-.803c.503-1.795 1.368-3.123 2.596-3.986 1.228-.862 3.053-1.293 5.473-1.293 2.199 0 3.837.262 4.913.786 1.076.513 1.831 1.171 2.263 1.975.445.793.667 2.255.667 4.388l-.053 5.733c0 1.631.076 2.838.228 3.618.164.77.462 1.597.895 2.482h-4.877c-.129-.326-.287-.81-.474-1.45a9.044 9.044 0 0 0-.175-.577c-.842.815-1.743 1.427-2.702 1.835a7.762 7.762 0 0 1-3.07.612c-1.918 0-3.433-.519-4.544-1.556-1.099-1.037-1.649-2.348-1.649-3.933 0-1.049.251-1.98.754-2.796a4.863 4.863 0 0 1 2.105-1.888c.913-.443 2.223-.828 3.93-1.154 2.304-.431 3.9-.833 4.79-1.206v-.49c0-.943-.234-1.613-.702-2.01-.468-.407-1.351-.611-2.649-.611-.877 0-1.562.175-2.053.524-.491.338-.888.938-1.193 1.8Zm6.597 3.986c-.632.21-1.632.46-3.001.751-1.368.292-2.262.577-2.684.857-.642.454-.965 1.031-.965 1.73 0 .688.258 1.282.773 1.783.514.501 1.169.752 1.964.752.889 0 1.737-.291 2.544-.874.597-.443.988-.985 1.176-1.626.129-.42.193-1.217.193-2.394v-.98Zm7.264 3.618 4.947-.751c.21.955.637 1.683 1.281 2.184.643.49 1.543.734 2.701.734 1.275 0 2.235-.233 2.877-.699.434-.326.649-.763.649-1.31 0-.373-.117-.682-.35-.927-.246-.233-.796-.449-1.649-.647-3.977-.874-6.498-1.672-7.562-2.394-1.474-1.003-2.21-2.395-2.21-4.178 0-1.608.637-2.96 1.912-4.055 1.275-1.096 3.252-1.643 5.93-1.643 2.55 0 4.444.413 5.684 1.24 1.24.828 2.094 2.052 2.561 3.671l-4.649.857c-.199-.723-.579-1.276-1.14-1.66-.55-.385-1.339-.578-2.369-.578-1.298 0-2.227.181-2.789.542-.374.257-.561.589-.561.997 0 .35.163.646.491.891.444.326 1.976.787 4.596 1.381 2.632.594 4.468 1.323 5.509 2.185 1.029.874 1.544 2.092 1.544 3.653 0 1.701-.714 3.164-2.14 4.387-1.427 1.224-3.538 1.836-6.334 1.836-2.537 0-4.55-.513-6.035-1.538-1.474-1.026-2.438-2.418-2.894-4.178Zm20.877-13.267h4.596v2.727c.597-.932 1.404-1.69 2.422-2.272 1.017-.583 2.146-.874 3.385-.874 2.164 0 4.001.844 5.509 2.534 1.509 1.69 2.264 4.044 2.264 7.062 0 3.1-.761 5.512-2.281 7.236-1.52 1.713-3.363 2.57-5.526 2.57-1.03 0-1.965-.204-2.807-.612-.831-.408-1.708-1.107-2.632-2.097v9.351h-4.93V55.247Zm4.878 8.967c0 2.086.415 3.63 1.245 4.632.83.99 1.842 1.486 3.035 1.486 1.147 0 2.1-.454 2.859-1.363.761-.921 1.141-2.424 1.141-4.51 0-1.946-.392-3.391-1.176-4.335-.783-.944-1.753-1.416-2.912-1.416-1.205 0-2.204.466-2.999 1.398-.796.921-1.193 2.29-1.193 4.108Zm16.509-11.484v-4.544h4.929v4.544h-4.929Zm0 21.08V55.247h4.929V73.81h-4.929Zm39.299-3.25a16.996 16.996 0 0 0 4.158 2.167l-1.912 3.653a11.846 11.846 0 0 1-2.298-.962c-.164-.081-1.317-.839-3.457-2.272-1.684.734-3.549 1.101-5.596 1.101-3.954 0-7.053-1.16-9.298-3.478-2.234-2.319-3.351-5.576-3.351-9.771 0-4.183 1.123-7.435 3.368-9.754 2.246-2.33 5.292-3.495 9.14-3.495 3.814 0 6.837 1.165 9.071 3.495 2.234 2.32 3.351 5.57 3.351 9.754 0 2.214-.311 4.16-.93 5.838-.468 1.282-1.216 2.523-2.246 3.723Zm-4.175-2.92c.666-.78 1.163-1.725 1.491-2.832.339-1.107.509-2.377.509-3.81 0-2.96-.655-5.168-1.965-6.625-1.31-1.468-3.024-2.202-5.141-2.202s-3.836.734-5.157 2.202c-1.31 1.469-1.965 3.677-1.965 6.625 0 2.995.655 5.238 1.965 6.73 1.321 1.48 2.988 2.22 5 2.22a6.1 6.1 0 0 0 2.122-.368 15.016 15.016 0 0 0-3.21-1.608l1.456-2.954c1.708.583 3.339 1.457 4.895 2.622Zm10.737 6.17V48.185h10.93c2.748 0 4.743.233 5.982.7 1.252.454 2.252 1.27 3 2.447.749 1.177 1.123 2.523 1.123 4.038 0 1.922-.567 3.513-1.701 4.771-1.135 1.247-2.831 2.034-5.088 2.36 1.123.653 2.046 1.37 2.772 2.15.737.78 1.725 2.168 2.964 4.16l3.141 5h-6.211l-3.754-5.577c-1.333-1.992-2.246-3.245-2.737-3.758-.491-.524-1.012-.88-1.561-1.066-.55-.198-1.421-.297-2.614-.297h-1.053V73.81h-5.193Zm5.193-14.787h3.842c2.491 0 4.047-.105 4.667-.315a2.796 2.796 0 0 0 1.456-1.084c.351-.512.526-1.153.526-1.922 0-.863-.233-1.556-.701-2.08-.456-.536-1.105-.874-1.948-1.014-.421-.058-1.684-.088-3.789-.088h-4.053v6.503Z" />
    <path fill="#000" d="M123.445 73.81h-.372v.371h.372v-.37Zm0-25.625v-.37h-.372v.37h.372Zm5.193 0h.372v-.37h-.372v.37Zm0 11.38h-.372v.951l.646-.7-.274-.251Zm10.491-11.38v-.37h-.163l-.111.12.274.25Zm6.983 0 .267.258.61-.628h-.877v.37Zm-9.685 9.981-.267-.257-.206.212.162.247.311-.202Zm10.211 15.644v.371h.685l-.373-.573-.312.202Zm-6.719 0-.321.188.107.183h.214v-.37Zm-7.07-12.026.321-.187-.246-.418-.341.346.266.26Zm-4.211 4.283-.266-.26-.106.109v.15h.372Zm0 7.743v.371h.372v-.37h-.372Zm-4.821 0V48.185h-.744V73.81h.744Zm-.372-25.254h5.193v-.741h-5.193v.741Zm4.821-.37v11.379h.744v-11.38h-.744Zm.646 11.63 10.491-11.38-.548-.501-10.491 11.379.548.501Zm10.217-11.26h6.983v-.741h-6.983v.741Zm6.715-.628-9.684 9.98.535.516 9.684-9.98-.535-.516Zm-9.728 10.44 10.21 15.644.624-.404-10.211-15.644-.623.404Zm10.522 15.072h-6.719v.741h6.719v-.741Zm-6.399.183-7.069-12.026-.642.375 7.07 12.026.641-.375Zm-7.656-12.098-4.211 4.283.532.518 4.21-4.282-.531-.519Zm-4.317 4.542v7.743h.744v-7.743h-.744Zm.372 7.373h-5.193v.741h5.193v-.741Zm23.632-12.53-.066.365.312.056.105-.298-.351-.122Zm-4.473-.803-.359-.1-.109.392.401.072.067-.364Zm2.596-3.986-.214-.303.214.303Zm10.386-.507-.164.333.003.002.161-.335Zm2.263 1.975-.328.176.003.005.325-.18Zm.667 4.388.372.003v-.003h-.372Zm-.053 5.733-.372-.003v.003h.372Zm.228 3.618-.365.07.001.007.364-.077Zm.895 2.482v.371h.595l-.261-.533-.334.162Zm-4.877 0-.346.136.092.235h.254v-.37Zm-.474-1.45-.358.1.001.003.357-.103Zm-.175-.577.348-.13-.2-.531-.408.395.26.266Zm-10.316.891-.256.27h.002l.254-.27Zm-.895-6.73.317.195.002-.002-.319-.192Zm2.105-1.887.162.334h.001l-.163-.334Zm3.93-1.154-.069-.364h-.001l.07.364Zm4.79-1.206.144.342.228-.096v-.246h-.372Zm-.702-2.5-.245.28.004.003.241-.282Zm-4.702-.087.211.305.006-.003-.217-.302Zm5.404 5.786h.372v-.514l-.49.162.118.352Zm-5.685 1.608-.206-.309-.004.004-.005.003.215.302Zm4.316 3.391.218.3.005-.003-.223-.297Zm1.176-1.626-.356-.108-.001.005.357.103Zm-6.338-7.723-4.473-.804-.133.73 4.474.803.132-.73Zm-4.181-.34c.485-1.733 1.31-2.98 2.452-3.782l-.428-.606c-1.315.923-2.221 2.333-2.741 4.189l.717.2Zm2.452-3.782c1.138-.799 2.872-1.226 5.259-1.226v-.741c-2.454 0-4.369.435-5.687 1.361l.428.606Zm5.259-1.226c2.183 0 3.751.263 4.749.75l.328-.667c-1.154-.562-2.861-.824-5.077-.824v.741Zm4.752.75c1.026.49 1.711 1.1 2.096 1.817l.656-.35c-.48-.893-1.304-1.599-2.43-2.135l-.322.669Zm2.099 1.822c.191.34.349.855.457 1.566.107.707.163 1.586.163 2.64h.744c0-1.077-.056-1.995-.171-2.75-.114-.752-.29-1.365-.543-1.817l-.65.361Zm.62 4.203-.053 5.734.744.006.053-5.733-.744-.007Zm-.053 5.737c0 1.636.076 2.872.235 3.689l.731-.141c-.146-.745-.222-1.921-.222-3.548h-.744Zm.236 3.695c.172.805.482 1.661.925 2.568l.668-.325c-.422-.865-.709-1.663-.865-2.397l-.728.154Zm1.259 2.035h-4.877v.741h4.877v-.741Zm-4.531.235c-.122-.31-.276-.781-.462-1.419l-.715.207c.188.644.349 1.14.485 1.483l.692-.271Zm-.462-1.415a8.798 8.798 0 0 0-.185-.607l-.697.26c.029.076.083.252.166.547l.716-.2Zm-.793-.743c-.813.788-1.676 1.372-2.588 1.76l.292.682c1.006-.428 1.944-1.067 2.815-1.91l-.519-.532Zm-2.588 1.76a7.392 7.392 0 0 1-2.924.582v.742a8.139 8.139 0 0 0 3.216-.642l-.292-.682Zm-2.924.582c-1.849 0-3.265-.498-4.29-1.455l-.508.54c1.196 1.118 2.811 1.656 4.798 1.656v-.74Zm-4.288-1.454c-1.021-.963-1.533-2.175-1.533-3.664h-.744c0 1.681.587 3.091 1.765 4.202l.512-.538Zm-1.533-3.664c0-.987.236-1.85.699-2.602l-.634-.388c-.542.88-.809 1.88-.809 2.99h.744Zm.701-2.604a4.483 4.483 0 0 1 1.948-1.746l-.322-.668a5.229 5.229 0 0 0-2.263 2.03l.637.384Zm1.949-1.747c.869-.422 2.143-.799 3.838-1.123l-.141-.728c-1.72.329-3.067.72-4.023 1.185l.326.666Zm3.836-1.123c2.304-.43 3.936-.838 4.865-1.228l-.289-.684c-.848.356-2.409.753-4.714 1.184l.138.728Zm5.093-1.57v-.49h-.744v.49h.744Zm0-.49c0-.993-.246-1.794-.833-2.292l-.482.565c.348.295.571.833.571 1.728h.744Zm-.829-2.288c-.296-.259-.698-.431-1.174-.541-.478-.11-1.054-.163-1.72-.163v.741c.632 0 1.147.05 1.551.144.408.094.681.227.853.377l.49-.558Zm-2.894-.704c-.921 0-1.692.183-2.269.593l.433.604c.405-.289 1.003-.456 1.836-.456v-.74Zm-2.264.59c-.582.4-1.016 1.084-1.333 1.983l.702.245c.291-.825.654-1.343 1.053-1.618l-.422-.61Zm5.497 5.74c-.611.202-1.594.45-2.96.74l.156.725c1.37-.292 2.387-.546 3.039-.763l-.235-.703Zm-2.96.74c-.691.147-1.27.294-1.733.442-.458.146-.826.3-1.08.468l.413.617c.167-.11.456-.24.894-.379.432-.138.984-.279 1.662-.423l-.156-.725Zm-2.822.917c-.727.514-1.122 1.197-1.122 2.032h.744c0-.562.25-1.033.809-1.428l-.431-.604Zm-1.122 2.032c0 .792.302 1.481.884 2.048l.52-.53c-.446-.434-.66-.934-.66-1.518h-.744Zm.884 2.048c.592.577 1.344.858 2.225.858v-.742c-.709 0-1.267-.22-1.705-.646l-.52.53Zm2.225.858c.977 0 1.9-.322 2.762-.945l-.436-.6c-.751.542-1.524.803-2.326.803v.742Zm2.767-.948c.653-.485 1.097-1.092 1.31-1.82l-.714-.206c-.162.555-.502 1.032-1.041 1.432l.445.594Zm1.309-1.814c.147-.48.209-1.332.209-2.503h-.744c0 1.182-.067 1.927-.177 2.286l.712.217Zm.209-2.503v-.98h-.744v.98h.744Zm6.892 2.64-.057-.367-.407.062.104.397.36-.093Zm4.947-.752.363-.08-.075-.34-.344.053.056.367Zm1.281 2.184-.229.292.003.003.226-.295Zm5.578.035.219.3.006-.004-.225-.296Zm.299-2.237.269-.256-.006-.006-.006-.007-.257.269Zm-1.649-.647.084-.36-.004-.002-.08.362Zm-7.562-2.394-.21.306.21-.306Zm-.298-8.233.243.28-.243-.28Zm11.614-.402.207-.308-.207.308Zm2.561 3.67.068.365.403-.074-.113-.393-.358.102Zm-4.649.857-.359.098.091.328.336-.062-.068-.364Zm-1.14-1.66-.214.303.003.002.211-.306Zm-5.158-.036-.202-.311-.004.003-.005.003.211.305Zm-.07 1.888-.223.297.002.002.221-.299Zm4.596 1.381-.082.362.082-.362Zm5.509 2.185.242-.282-.004-.003-.238.285Zm-12.965 8.338-.213.304h.001l.212-.304Zm-2.839-3.811 4.948-.752-.112-.733-4.948.752.112.733Zm4.528-1.039c.226 1.022.691 1.833 1.416 2.397l.457-.584c-.561-.437-.95-1.083-1.146-1.972l-.727.159Zm1.419 2.4c.73.556 1.722.81 2.927.81v-.741c-1.11 0-1.92-.235-2.476-.658l-.451.589Zm2.927.81c1.31 0 2.361-.237 3.096-.77l-.437-.6c-.552.4-1.419.629-2.659.629v.741Zm3.102-.774a1.93 1.93 0 0 0 .796-1.607h-.744c0 .434-.163.76-.501 1.016l.449.591Zm.796-1.607c0-.457-.146-.86-.453-1.182l-.539.512c.161.168.248.382.248.67h.744Zm-.465-1.195c-.175-.165-.426-.298-.718-.412a8.064 8.064 0 0 0-1.104-.327l-.169.722a7.39 7.39 0 0 1 1.001.294c.258.102.405.193.476.26l.514-.537Zm-1.826-.74c-1.983-.436-3.595-.85-4.84-1.245-1.255-.397-2.107-.764-2.593-1.094l-.419.613c.58.393 1.52.786 2.786 1.187 1.275.404 2.911.825 4.906 1.263l.16-.724Zm-7.432-2.339c-1.372-.932-2.048-2.21-2.048-3.871h-.745c0 1.905.798 3.412 2.373 4.484l.42-.613Zm-2.048-3.871c0-1.495.586-2.746 1.783-3.775l-.486-.56c-1.352 1.161-2.042 2.614-2.042 4.335h.745Zm1.783-3.775c1.177-1.011 3.048-1.553 5.687-1.553v-.741c-2.718 0-4.801.554-6.173 1.733l.486.562Zm5.687-1.553c2.522 0 4.328.412 5.477 1.179l.414-.616c-1.331-.888-3.314-1.304-5.891-1.304v.741Zm5.477 1.179c1.157.772 1.964 1.917 2.411 3.465l.715-.205c-.489-1.692-1.39-2.994-2.712-3.876l-.414.616Zm2.7 2.998-4.649.856.136.73 4.649-.857-.136-.73Zm-4.222 1.123c-.219-.798-.647-1.429-1.288-1.868l-.422.61c.482.33.814.806.992 1.454l.718-.196Zm-1.285-1.866c-.638-.446-1.515-.644-2.583-.644v.741c.992 0 1.693.187 2.155.51l.428-.607Zm-2.583-.644c-1.313 0-2.335.179-2.991.601l.404.623c.467-.3 1.305-.483 2.587-.483v-.741Zm-3 .607c-.462.317-.722.757-.722 1.302h.744c0-.271.114-.495.4-.691l-.422-.611Zm-.722 1.302c0 .486.236.886.64 1.188l.446-.593c-.251-.188-.342-.383-.342-.595h-.744Zm.642 1.19c.15.11.365.214.62.315.261.104.587.214.976.331.778.234 1.825.5 3.139.798l.165-.723c-1.307-.297-2.335-.558-3.089-.785a11.5 11.5 0 0 1-.915-.31 2.219 2.219 0 0 1-.454-.223l-.442.597Zm4.735 1.444c2.62.591 4.383 1.305 5.353 2.108l.476-.57c-1.112-.921-3.022-1.665-5.664-2.261l-.165.723Zm5.35 2.105c.932.792 1.413 1.9 1.413 3.371h.744c0-1.65-.549-2.98-1.674-3.935l-.483.564Zm1.413 3.371c0 1.582-.657 2.945-2.011 4.107l.485.561c1.5-1.285 2.27-2.847 2.27-4.668h-.744Zm-2.011 4.107c-1.333 1.143-3.342 1.745-6.091 1.745v.742c2.842 0 5.055-.622 6.576-1.926l-.485-.561Zm-6.091 1.745c-2.491 0-4.42-.504-5.823-1.472l-.424.61c1.569 1.082 3.663 1.603 6.247 1.603v-.74Zm-5.822-1.471c-1.4-.974-2.313-2.291-2.747-3.967l-.72.186c.477 1.844 1.494 3.312 3.041 4.389l.426-.608Zm17.77-17.14v-.371h-.372v.37h.372Zm4.596 0h.373v-.371h-.373v.37Zm0 2.726h-.372v1.271l.686-1.072-.314-.199Zm2.422-2.272-.185-.322.185.322Zm8.894 1.66-.277.247.277-.247Zm-.017 14.298.278.246.002-.001-.28-.245Zm-8.333 1.958-.165.333h.002l.163-.333Zm-2.632-2.097.273-.253-.645-.69v.942h.372Zm0 9.351v.37h.372v-.37h-.372Zm-4.93 0h-.372v.37h.372v-.37Zm6.123-12.026-.287.236.002.002.285-.238Zm5.894.123.286.237.002-.002-.288-.235Zm-5.946-8.862.282.241.001-.002-.283-.24Zm-6.071-4.49h4.596v-.74h-4.596v.74Zm4.224-.37v2.727h.745v-2.727h-.745Zm.686 2.926c.563-.879 1.324-1.595 2.293-2.15l-.37-.643c-1.067.61-1.92 1.41-2.55 2.395l.627.398Zm2.293-2.15c.958-.548 2.023-.825 3.2-.825v-.741c-1.3 0-2.494.306-3.57.923l.37.643Zm3.2-.825c2.053 0 3.789.796 5.232 2.41l.555-.492c-1.575-1.764-3.51-2.659-5.787-2.659v.741Zm5.232 2.41c1.43 1.602 2.169 3.858 2.169 6.816h.744c0-3.078-.77-5.53-2.358-7.308l-.555.493Zm2.169 6.816c0 3.041-.746 5.355-2.189 6.992l.56.489c1.597-1.813 2.373-4.323 2.373-7.481h-.744Zm-2.188 6.99c-1.455 1.64-3.197 2.445-5.247 2.445v.742c2.277 0 4.219-.908 5.804-2.695l-.557-.491Zm-5.247 2.445c-.979 0-1.859-.193-2.645-.574l-.325.666c.898.435 1.89.65 2.97.65v-.742Zm-2.643-.573c-.775-.381-1.617-1.046-2.523-2.018l-.546.505c.943 1.01 1.855 1.743 2.74 2.178l.329-.665Zm-3.168-1.766v9.352h.744V71.52h-.744Zm.372 8.981h-4.93v.742h4.93V80.5Zm-4.558.371V55.247h-.744v25.625h.744Zm4.134-16.658c0 2.123.42 3.77 1.33 4.868l.574-.472c-.751-.906-1.16-2.347-1.16-4.396h-.744Zm1.332 4.87c.893 1.066 2.007 1.619 3.32 1.619v-.742c-1.072 0-1.983-.438-2.75-1.352l-.57.475Zm3.32 1.619c1.261 0 2.318-.507 3.145-1.497l-.571-.475c-.692.828-1.543 1.23-2.574 1.23v.742Zm3.147-1.499c.844-1.02 1.225-2.631 1.225-4.745h-.744c0 2.058-.379 3.454-1.056 4.274l.575.471Zm1.225-4.745c0-1.985-.398-3.532-1.261-4.571l-.573.472c.704.848 1.09 2.191 1.09 4.099h.744Zm-1.261-4.571c-.849-1.023-1.922-1.55-3.199-1.55v.74c1.04 0 1.908.417 2.626 1.282l.573-.472Zm-3.199-1.55c-1.316 0-2.418.515-3.283 1.528l.567.48c.726-.85 1.623-1.267 2.716-1.267v-.742Zm-3.281 1.527c-.877 1.014-1.283 2.485-1.283 4.35h.744c0-1.773.388-3.04 1.103-3.867l-.564-.483Zm15.598-7.135h-.373v.37h.373v-.37Zm0-4.544v-.371h-.373v.37h.373Zm4.929 0h.372v-.371h-.372v.37Zm0 4.544v.37h.372v-.37h-.372Zm-4.929 21.08h-.373v.371h.373v-.37Zm0-18.563v-.37h-.373v.37h.373Zm4.929 0h.372v-.37h-.372v.37Zm0 18.563v.371h.372v-.37h-.372Zm-4.557-21.08v-4.544h-.745v4.544h.745Zm-.372-4.174h4.929v-.741h-4.929v.741Zm4.557-.37v4.544h.744v-4.544h-.744Zm.372 4.173h-4.929v.742h4.929v-.742Zm-4.557 21.451V55.247h-.745V73.81h.745Zm-.372-18.192h4.929v-.742h-4.929v.742Zm4.557-.37V73.81h.744V55.247h-.744Zm.372 18.192h-4.929v.741h4.929v-.741Zm34.37-2.88-.283-.242-.263.308.33.235.216-.302Zm4.158 2.167.33.171.197-.376-.401-.144-.126.349Zm-1.912 3.653-.107.355.295.088.142-.272-.33-.171Zm-2.298-.962.178-.325-.006-.003-.006-.003-.166.331Zm-3.457-2.272.208-.308-.17-.113-.186.082.148.34Zm-14.894-2.377-.268.257.268-.257Zm.017-19.525.268.258h.001l-.269-.258Zm18.211 0-.269.257.269-.257Zm2.421 15.592-.349-.128-.001.001.35.127Zm-6.421.804-.224.296.28.21.227-.266-.283-.24Zm1.491-2.832-.356-.108-.001.004.357.104Zm-1.456-10.435-.278.247h.001l.277-.247Zm-10.298 0-.278-.247v.001l.278.246Zm0 13.355-.281.244.003.002.278-.246Zm7.123 1.852.128.348.693-.254-.618-.404-.203.31Zm-3.211-1.608-.334-.163-.184.373.393.14.125-.35Zm1.456-2.954.12-.35-.309-.106-.145.293.334.163Zm8.854 5.843a17.355 17.355 0 0 0 4.248 2.215l.252-.698a16.637 16.637 0 0 1-4.068-2.12l-.432.603Zm4.044 1.694-1.912 3.653.66.343 1.912-3.653-.66-.343Zm-1.476 3.47a11.491 11.491 0 0 1-2.226-.932l-.357.65c.77.42 1.561.751 2.37.992l.213-.71Zm-2.238-.938-.022-.012-.058-.035a60.346 60.346 0 0 1-.868-.56c-.575-.378-1.397-.925-2.467-1.642l-.415.616c1.071.717 1.894 1.265 2.472 1.645.288.19.516.337.683.444.158.1.28.176.342.207l.333-.663Zm-3.771-2.28c-1.633.711-3.446 1.07-5.448 1.07v.741c2.092 0 4.009-.375 5.746-1.132l-.298-.68Zm-5.448 1.07c-3.876 0-6.87-1.134-9.031-3.365l-.535.514c2.331 2.407 5.536 3.592 9.566 3.592v-.741Zm-9.03-3.365c-2.149-2.23-3.247-5.385-3.247-9.514h-.744c0 4.26 1.135 7.62 3.455 10.028l.536-.514Zm-3.247-9.514c0-4.117 1.103-7.265 3.264-9.496l-.535-.515c-2.331 2.407-3.473 5.761-3.473 10.01h.744Zm3.265-9.497c2.162-2.244 5.105-3.382 8.871-3.382v-.741c-3.928 0-7.079 1.193-9.408 3.61l.537.513Zm8.871-3.382c3.731 0 6.65 1.137 8.802 3.382l.538-.513c-2.317-2.416-5.444-3.61-9.34-3.61v.741Zm8.802 3.382c2.149 2.231 3.248 5.38 3.248 9.497h.744c0-4.25-1.137-7.603-3.455-10.01l-.537.513Zm3.248 9.497c0 2.18-.305 4.081-.907 5.71l.698.256c.638-1.727.953-3.718.953-5.966h-.744Zm-.908 5.711c-.45 1.234-1.174 2.438-2.179 3.61l.566.481c1.054-1.229 1.827-2.508 2.312-3.837l-.699-.254Zm-5.788 1.171c.705-.825 1.224-1.816 1.565-2.967l-.714-.21c-.314 1.064-.788 1.96-1.418 2.697l.567.48Zm1.564-2.963c.352-1.15.525-2.458.525-3.92h-.744c0 1.406-.167 2.638-.493 3.703l.712.217Zm.525-3.92c0-3.005-.664-5.319-2.06-6.871l-.554.495c1.224 1.36 1.87 3.463 1.87 6.377h.744Zm-2.059-6.87c-1.386-1.554-3.204-2.327-5.419-2.327v.742c2.02 0 3.629.695 4.863 2.078l.556-.493Zm-5.419-2.327c-2.214 0-4.036.773-5.435 2.326l.555.495c1.245-1.384 2.861-2.08 4.88-2.08v-.74Zm-5.435 2.327c-1.395 1.563-2.059 3.876-2.059 6.87h.744c0-2.9.646-5.004 1.87-6.377l-.555-.493Zm-2.059 6.87c0 3.041.663 5.388 2.056 6.975l.561-.489c-1.227-1.396-1.873-3.536-1.873-6.485h-.744Zm2.059 6.977c1.393 1.56 3.161 2.344 5.278 2.344v-.741c-1.908 0-3.472-.696-4.723-2.096l-.555.493Zm5.278 2.344c.79 0 1.541-.13 2.251-.39l-.257-.695a5.744 5.744 0 0 1-1.994.344v.741Zm2.326-1.048a15.427 15.427 0 0 0-3.289-1.647l-.25.698c1.058.374 2.102.897 3.132 1.57l.407-.62Zm-3.08-1.134 1.456-2.954-.668-.327-1.456 2.954.668.327Zm1.001-2.767c1.669.569 3.266 1.424 4.792 2.567l.448-.592c-1.585-1.187-3.251-2.08-4.999-2.676l-.241.7Zm15.753 8.441h-.372v.371h.372v-.37Zm0-25.625v-.37h-.372v.37h.372Zm16.912.7-.131.347.004.001.127-.348Zm2.422 11.257.275.248h.001l-.276-.248Zm-5.088 2.36-.053-.368-1.055.153.921.534.187-.32Zm2.772 2.15-.273.25.002.003.271-.254Zm2.964 4.16-.316.195h.001l.315-.196Zm3.141 4.998v.371h.671l-.356-.567-.315.196Zm-6.211 0-.309.207.111.164h.198v-.37Zm-3.754-5.576-.309.206.309-.206Zm-2.737-3.758-.272.253.003.003.269-.256Zm-1.561-1.066-.127.349.007.002.12-.35Zm-3.667-.297v-.37h-.372v.37h.372Zm0 10.697v.371h.372v-.37h-.372Zm0-14.787h-.372v.37h.372v-.37Zm9.79-5.401-.285.24.006.006.279-.246Zm-1.948-1.014.061-.366-.009-.001-.052.367Zm-7.842-.088v-.37h-.372v.37h.372Zm-4.821 21.29V48.185h-.744V73.81h.744Zm-.372-25.254h10.93v-.741h-10.93v.741Zm10.93 0c2.742 0 4.678.235 5.851.675l.263-.693c-1.307-.491-3.358-.723-6.114-.723v.741Zm5.855.677c1.17.425 2.107 1.186 2.813 2.297l.628-.397c-.79-1.242-1.853-2.113-3.186-2.597l-.255.697Zm2.813 2.297c.707 1.113 1.065 2.389 1.065 3.84h.744c0-1.58-.391-2.995-1.181-4.237l-.628.397Zm1.065 3.84c0 1.844-.541 3.343-1.606 4.524l.553.495c1.204-1.336 1.797-3.019 1.797-5.02h-.744Zm-1.606 4.522c-1.058 1.164-2.663 1.924-4.864 2.242l.106.734c2.313-.334 4.1-1.148 5.31-2.478l-.552-.498Zm-4.998 2.93c1.097.637 1.99 1.332 2.686 2.08l.546-.503c-.755-.812-1.71-1.55-2.857-2.218l-.375.64Zm2.688 2.083c.709.752 1.681 2.111 2.919 4.102l.633-.391c-1.242-1.995-2.246-3.41-3.01-4.219l-.542.508Zm2.92 4.103 3.141 4.999.63-.393-3.14-5-.631.394Zm3.456 4.432h-6.211v.741h6.211v-.741Zm-5.901.164-3.755-5.576-.618.413 3.754 5.576.619-.413Zm-3.754-5.575c-1.329-1.986-2.259-3.268-2.777-3.809l-.539.512c.464.485 1.359 1.708 2.697 3.708l.619-.411Zm-2.775-3.806c-.523-.558-1.093-.953-1.713-1.164l-.24.702c.48.163.95.478 1.409.968l.544-.506Zm-1.706-1.161c-.614-.222-1.541-.32-2.741-.32v.742c1.185 0 2.002.1 2.487.275l.254-.697Zm-2.741-.32h-1.053v.742h1.053v-.742Zm-1.425.37V73.81h.744V63.113h-.744Zm.372 10.328h-5.193v.741h5.193v-.741Zm0-14.047h3.842v-.741h-3.842v.741Zm3.842 0c1.25 0 2.271-.026 3.061-.08.777-.052 1.365-.132 1.726-.254l-.24-.702c-.259.088-.759.165-1.537.217a46.67 46.67 0 0 1-3.01.078v.741Zm4.787-.334a3.17 3.17 0 0 0 1.644-1.226l-.615-.417a2.428 2.428 0 0 1-1.269.941l.24.702Zm1.644-1.226c.401-.587.59-1.306.59-2.131h-.744c0 .712-.162 1.276-.461 1.714l.615.417Zm.59-2.131c0-.932-.254-1.72-.795-2.327l-.557.493c.395.442.608 1.04.608 1.834h.744Zm-.79-2.32c-.524-.616-1.26-.989-2.17-1.14l-.122.731c.774.13 1.337.433 1.724.888l.568-.48Zm-2.179-1.141c-.453-.063-1.749-.091-3.841-.091v.741c2.118 0 3.349.03 3.738.084l.103-.734Zm-3.841-.091h-4.053v.741h4.053v-.741Zm-4.425.37v6.503h.744V52.52h-.744Z" />

    <!-- Center logo -->
    <path fill="#fff" d="M139 233h60v60h-60z" />
    <path fill="#F14635" d="M181.705 238h-25.41c-6.79 0-12.295 5.505-12.295 12.295v25.41c0 6.79 5.505 12.295 12.295 12.295h25.41c6.79 0 12.295-5.505 12.295-12.295v-25.41c0-6.79-5.505-12.295-12.295-12.295Z" />
    <path fill="#fff" d="M168.035 246.197h1.132l.021.021h.449l.021.022h.278l.021.022.086-.022.277.065.086-.022.021.022.342.021.149.044.278.021.128.043h.128l.107.043h.128l.235.065h.107l.363.108.171.022.15.065.042-.022.299.108h.043l.128.022.256.108h.043l.107.043h.085l.043.043.256.065.406.173.246.064v.044h.075l.107.064h.042l.235.087.128.086h.064l.086.065.107.022.341.194.022-.022.042.044.534.259.3.194.096.022v.043h.053l.491.324.118.043.01.043.032-.01v.032h.033l.512.367.075.022v.043h.032l.182.108v.043h.032l.352.259v.044h.032l.31.237.032.065.064.021.31.26v.043h.032l.47.453h.032l.053.087h.032v.032l.15.13.032.054h.032v.043h.042v.032l.107.087.438.507.053.033.107.151-.011.032h.043l.054.054.021.076.128.097.214.313h.042v.033l.556.734.053.184.022-.022.032.032-.022.022.032.032.096.076v.043l.193.259.448.778.235.475-.011.033.054.032.299.648-.011.032h.032v.033l.107.237-.011.033h.032v.032l.171.367v.044l.342.928.043.238.128.324.021.194.064.13v.108l.064.237-.01.033h.032v.075l.149.648v.152l.064.194.022.389.064.237.021.432.043.238v.281l.021.021v.411l.022.021v1.188l-.022.022-.021.734-.043.238v.043l-.021.389-.043.151v.129l-.021.022v.13l-.022.021-.085.627-.043.108-.043.302-.042.086v.108l-.278 1.037-.085.194-.043.216-.107.238-.043.194-.277.713-.278.562-.043.151-.395.745-.032.011.022.043-.556.94-.043.01.022.022-.043.043-.043.108-.149.173v.043l-.491.691-.609.746h-.032v-.033l-.192-.173v-.032h-.032l-.289-.4-.598-.993-.021-.087-.363-.648-.534-1.166.021-.021-.043-.044-.32-.799-.107-.389-.043-.043-.021-.129-.064-.13v-.043l-.128-.367-.064-.303-.128-.388v-.13l-.043-.065-.022-.173-.042-.086-.022-.238-.042-.086v-.13l-.086-.345v-.151l.022-.022-.043-.043-.064-.367v-.173l-.022-.022v-.237l-.042-.13-.022-1.231.107-.367.224-.421.032-.011-.021-.022.043-.043.064-.162h.043v-.054l.747-.983h.043v-.032l.256-.281.086-.14h.042v-.033l.267-.291h.032v-.033l.065-.032.021-.087.064-.032.075-.097h.032v-.033l.438-.485.053-.033.705-.799v-.032h.043v-.033l.064-.097.064-.032.107-.184h.042v-.043h.043v-.033l.15-.172.042-.108.278-.389.128-.259.021-.108.065-.087.085-.389v-.475l-.064-.216-.203-.334-.299-.195-.192-.043h-.043l-.043.022h-.192l-.214.086-.331.238-.534.809-.064.173-.171.216v.054h-.042v.065h-.043v.054l-.16.184h-.032v.054l-.246.27-.619.54-.096.043-.054.086-.192.13-.021-.022-.032.033-.118.14-.491.302-.032-.01v.054h-.032l-.385.216-.277.086-.043.043h-.043l-.299.065h-.043l-.106-.022h-.043l-.128-.043-.075-.075-.064-.108-.022-.26.065-.302.064-.108.064-.216.064-.065.064-.194.363-.627.043-.129.341-.562.235-.529.043-.011-.021-.064.064-.152v-.216l.021-.021-.021-.043.021-.087-.107-.345-.245-.27-.192-.108-.15-.022-.085-.043-.47-.022-.428.087-.192.086-.075-.011-.032.054-.235.108-.213.173h-.043l-.342.324-.074.022-.235.345h-.043v.033l-.32.486-.043.01v.044l-.256.518v.065l-.107.259-.043.216v.389l.021.064.022.195.128.367.064.086.021.173.064.151.022.26.021.021v.259l-.021.044v.043l-.022.108-.106.216-.203.248h-.032v.032l-.043.076-.352.281-.428.281-.341.172-.492.195-.534.151-.448.086-.833.044-.022-.022h-.213l-.641-.043-.555-.108-.598-.238-.481-.367-.299-.464v-.065l-.085-.151-.043-.216-.043-.043-.256-.843-.043-.043-.278-.799.022-.022-.043-.043-.342-.821-.128-.216v-.075l-.064-.033-.064-.173-.32-.485h-.043v-.033l-.043-.075h-.043v-.044h-.032l-.106-.129-.139-.087-.054-.086-.502-.4v-.032h-.032l-.117-.086-.054-.087-.053-.032-.171-.195-.192-.324-.043-.345.022-.022v-.151l.042-.043-.021-.087.043-.064.042-.195.193-.389.256-.367v-.043l.235-.281v-.043l.299-.41.021-.087.15-.237.213-.562.043-.389-.021-.043.021-.021v-.108l-.107-.335h-.042v-.033l-.118-.162-.149-.108-.342-.108h-.427l-.492.108-.448.195-.214.151h-.074v.043h-.033l-.437.324v.043h-.032l-.054.087-.085.021-.096.13-.054.032-.448.584-.171.378-.043.01.021.076h-.042v.097l-.086.346v.626l.064.324v.043l.064.238v.108l.065.173v.388l-.022.044v.043l-.064.237-.171.314h-.043v.032l-.17.227h-.043v.032l-.086.054-.16.195-.032-.011v.043l-.075.076-.032-.011v.043l-.117.119h-.032v.032l-.417.465-.032.01v.044l-.277.539-.193.735v.151l-.042.108-.022.367-.042.195-.086 1.576.022.043-.022.022-.021.562-.022.021-.021.324-.064.238-.021.237-.064.195-.064.367-.065.13-.106.453-.15.411v.086l-.043.086-.128.605-.064 1.015.022.022v.475l.064.367v.043l.021.195.064.194v.108l.342 1.253v.108l.043.108.021.194.043.108v.13l.064.237.042.476.043.151v.216l.043.173.021.518.022.022.021.95.021.021v.627l-.021.021v.605l-.021.022v.259l-.022.022.022.043-.043.194v.238l-.043.173v.194l-.064.281v.043l-.043.173v.043l-.042.324-.171.691v.108l-.171.529-.043.011.021.022-.032.032H159l-.406-.302-.459-.378.01-.033-.106-.043-.289-.238v-.064h-.043v-.033l-.032-.032-.021.021-.064-.064-.182-.141-.074-.097-.534-.518h-.032l-.289-.346h-.032v-.032l-.171-.205h-.042v-.033l-.214-.259.011-.032h-.043l-.053-.054-.406-.497-.107-.184h-.043v-.032l-.149-.195-.022-.075h-.042v-.033l-.727-1.101-.662-1.253.064-.021-.032-.033-.021.022h-.032v-.033l-.128-.28.01-.033h-.032v-.032l-.341-.778-.022-.129-.042-.044-.107-.367-.086-.173-.085-.259-.021-.173-.107-.259v-.086l-.257-.95-.021-.238-.107-.432-.021-.302-.021-.022v-.13l-.043-.151v-.194l-.043-.195v-.043l-.021-.345-.022-.022v-.302l-.021-.022v-.475l-.021-.022v-1.101l.021-.022v-.432l.021-.021v-.281l.043-.238v-.281l.064-.259-.021-.065.107-.561v-.043l.042-.195v-.043l.022-.194.085-.281v-.13l.171-.583v-.108l.043-.065.299-1.015.064-.108v-.043l.064-.216.064-.108v-.065l.192-.41v-.065l.214-.41.021-.108.064-.065v-.043l.139-.292.022.043.032-.054-.043-.021.235-.443.043-.011-.022-.043.491-.842.235-.324.043-.119h.043v-.033l.235-.356.064-.011-.022-.021.043-.043.299-.443h.043v-.033l.16-.205.054-.011v-.043l.032-.054h.032v-.032l.042-.076h.043v-.032l.086-.119h.042v-.032l.331-.378h.032v-.033l.257-.259v-.032l.064-.033v-.032h.042v-.043h.032l.033-.065h.042v-.043h.032l.032-.065.363-.303v-.043h.032l.033-.065.277-.194.075-.108.192-.151.043.021v-.043l.032.011v-.043l.053-.054.299-.259h.054v-.043h.032l.139-.087v-.043h.032l.363-.281h.053l.032-.065.15-.108.181-.064.054-.087.961-.605 1.175-.604.171-.044.32-.172.021.021.043-.043.705-.281.128-.021.214-.108.299-.065.534-.195h.085l.598-.172h.043l.747-.173h.043l.363-.065h.193l.234-.065h.193l.021-.021.385-.022.213-.043h.043l.747-.022.022-.021Zm-8.021 2.44-.021.044h.043l-.022-.044Zm4.699 6.631v.065l.043-.022v-.043h-.043Zm15.935.713v.043l.042-.021-.042-.022Zm-1.859 5.594-.021.043h.043l-.022-.043Zm4.55 7.819v.043h.043v-.043h-.043Zm-28.686 1.728.021.043v-.043h-.021Z" />
    <path fill="#fff" d="M168.248 263.821h.513l.021.022h.235l.022.022.384.043.086.043.192.022.384.108.235.107.022-.021.042.043.299.108.257.173.021-.022.064.065.192.108.331.292v.054h.064v.032l.3.346.106.172.022.098h.042v.032l.129.238.064.194v.086l.085.108.021.152.043.086.086.475.042.108.086.648-.011.032.032.011v.13l.086.389-.022.043.064.259v.151l.043.195v.043l.085.626.043.108v.151l.043.108v.216l.085.389.064.626.107.605-.021.043.043.13.021.302.043.152v.172l.042.173v.173l.043.151-.021.043.021.022.021.367.064.303v.237l.022.022v.194l.043.194v.303l.021.021v.173l.043.195v.324l.021.021v.303l.021.021-.021.022v.151l.021.022v.907l-.021.043v.043l-.021.346-.064.151v.043l-.139.249-.054.032-.181.205-.064.043-.299.216-.096.022v.043h-.054l-.278.13h-.128l-.192.064-.427.087h-.128l-.086.043-.235.022-.128.043-.043-.022-.341.065h-.043l-.256.043-.043-.021-.021.021h-.171l-.193.043h-.32l-.021.022-1.389.022h-.106l-.342-.13-.374-.194v-.044h-.053l-.064-.086-.022.022-.224-.227-.171-.281.021-.022-.064-.064-.171-.475-.106-.432v-.108l-.064-.173.021-.043-.043-.13v-.151l-.064-.346v-.043l-.064-.864-.021-.022.021-.086-.021-.022v-.367l-.022-.021-.021-1.858-.021-.021v-4.731l.021-.021.021-.821.022-.021v-.238l.021-.022v-.043l.043-.518.107-.497v-.108l.064-.173.021-.173.043-.043.042-.216.086-.227h.043v-.054l.299-.507h.042v-.043h.043v-.033l.267-.226.342-.173.448-.087Zm5.073 14.061v.043l.043-.021-.043-.022Zm-10.776-7.883.043.021h.086l.117.043.128.184v.043l-.021.022.085.086.022.043-.022.022.043.043.107.281v.043l.128.454.085.54.043.086v.173l.064.259v.173l.043.151v.216l.064.324.021.432.022.021v.044l.021.388.021.022v.259l.022.022v.453l.021.022v.216l.022.022.021 1.317-.021.108v.043l.021.044-.021.021v.281l-.043.194v.195l-.086.388-.106.238-.118.162-.043.022-.886-.324-.15-.292-.085-.281v-.043l-.043-.086-.021-.195-.064-.216.021-.043-.064-.129v-.044l-.043-.259v-.043l-.021-.324-.064-.324.021-.065-.021-.021v-.346l-.021-.022v-.324l-.022-.021v-1.577l.022-.021v-.497l.042-.216-.021-.065.021-.022v-.216l.043-.194v-.238l.043-.151.021-.259.043-.108v-.108l.171-.626.149-.292h.043v-.032l.117-.097Zm13.606.345.086.022.064-.022.331.13v.043h.032l.331.313.043.065.064.097h.043v.032l.064.119h.042v.033l.235.324.385.669.299.605.021.108.064.086.235.627-.021.043h.043l.042.086-.021.022.043.043.042.151-.01.033h.032v.054l.085.216-.021.043.043.065.064.259.021.389-.043.086-.021.184-.043.01v.044l-.064.226-.149.065v.043h-.032l-.727.54-.79.497-.171.065h-.149l-.054-.022-.01-.043-.043.022-.139-.119.021-.065-.085-.065-.192-.475v-.065l-.043-.043-.021-.151-.064-.151v-.087l-.064-.151-.022-.216-.064-.151v-.13l-.043-.108-.021-.28-.064-.281v-.173l-.043-.151.022-.086-.043-.152v-.237l-.021-.022v-.237l-.022-.022v-.475l-.021-.022v-.151l.021-.022v-.691l.022-.021.021-.411.043-.108.021-.237.064-.13v-.065l.043-.043v-.065l.139-.205h.032v-.032l.138-.076Z" />

    <!-- Stroke -->
    <rect width="339" height="484" x=".5" y=".5" stroke="#9B9B9B" stroke-dasharray="5 5" rx="7.5" />


</svg>