<svg width="378" height="540" viewBox="0 0 378 540" fill="none" xmlns="http://www.w3.org/2000/svg">

    <text x="50%" y="470" dominant-baseline="middle" text-anchor="middle" fill="black" style="font-size: 18px; font-family: 'Arial'"></text>
    <text x="50%" y="495" dominant-baseline="middle" text-anchor="middle" fill="grey" style="font-size: 14px; font-family: 'Arial'"></text>

    <g clip-path="url(#clip0_144_255)">
        <path d="M77.8458 124.638L81.081 125.658C80.5841 127.456 79.758 128.792 78.6018 129.667C77.4511 130.537 75.9891 130.971 74.2159 130.971C72.0224 130.971 70.2191 130.225 68.806 128.736C67.3941 127.239 66.687 125.195 66.687 122.605C66.687 119.865 67.3985 117.738 68.8171 116.226C70.238 114.706 72.1046 113.947 74.4193 113.947C76.4405 113.947 78.0826 114.542 79.3444 115.732C80.096 116.436 80.6597 117.447 81.0343 118.764L77.7324 119.55C77.5378 118.696 77.1276 118.023 76.5039 117.529C75.888 117.034 75.1364 116.787 74.2503 116.787C73.0252 116.787 72.0301 117.226 71.263 118.102C70.5048 118.978 70.1246 120.396 70.1246 122.357C70.1246 124.439 70.5004 125.921 71.2519 126.804C72.0035 127.688 72.9807 128.13 74.1825 128.13C75.0697 128.13 75.8324 127.848 76.4705 127.287C77.1098 126.726 77.5678 125.843 77.8458 124.638V124.638ZM83.4157 118.764H86.5709V123.637C87.0979 123.577 87.4692 123.417 87.6871 123.155C87.905 122.892 88.1685 122.32 88.4765 121.437C88.8823 120.262 89.3259 119.509 89.8062 119.18C90.2876 118.85 90.9179 118.685 91.6995 118.685C91.9396 118.685 92.3577 118.704 92.9502 118.742L92.9613 120.83C92.1275 120.83 91.5939 120.909 91.3615 121.066C91.128 121.231 90.8768 121.722 90.6055 122.538C90.2386 123.637 89.7083 124.315 89.0168 124.57C90.0174 124.847 90.8623 125.712 91.5527 127.164C91.5905 127.239 91.6317 127.317 91.6773 127.399L93.4461 130.69H90.043L88.4643 127.243C88.1418 126.547 87.8606 126.101 87.6193 125.906C87.3858 125.704 87.0367 125.603 86.5709 125.603V130.69H83.4157V118.764ZM97.0782 122.402L94.2043 121.886C94.5267 120.733 95.0826 119.879 95.8719 119.326C96.6613 118.772 97.8331 118.494 99.3885 118.494C100.8 118.494 101.853 118.663 102.545 119C103.235 119.329 103.72 119.753 103.998 120.268C104.284 120.778 104.427 121.717 104.427 123.087L104.394 126.77C104.394 127.82 104.441 128.593 104.539 129.095C104.645 129.589 104.836 130.121 105.114 130.69H101.982C101.867 130.384 101.766 130.072 101.678 129.757C101.644 129.633 101.607 129.509 101.565 129.387C101.064 129.884 100.475 130.284 99.8287 130.567C99.2047 130.83 98.5337 130.963 97.8564 130.959C96.6246 130.959 95.6518 130.627 94.9381 129.96C94.231 129.294 93.8786 128.451 93.8786 127.434C93.8786 126.76 94.0398 126.161 94.3633 125.636C94.6857 125.105 95.1371 124.701 95.7152 124.424C96.3011 124.14 97.1427 123.893 98.24 123.683C99.7198 123.405 100.746 123.147 101.317 122.908V122.593C101.317 121.987 101.167 121.556 100.866 121.302C100.566 121.04 99.9988 120.909 99.165 120.909C98.6002 120.909 98.1611 121.021 97.8453 121.246C97.5296 121.462 97.275 121.848 97.0782 122.402V122.402ZM101.316 124.963C100.91 125.097 100.268 125.258 99.3885 125.445C98.5102 125.633 97.9343 125.816 97.6641 125.996C97.2505 126.288 97.0437 126.659 97.0437 127.108C97.0437 127.549 97.2105 127.931 97.5407 128.253C97.8709 128.574 98.2911 128.736 98.8026 128.736C99.374 128.736 99.9188 128.549 100.437 128.174C100.82 127.89 101.072 127.542 101.193 127.13C101.275 126.86 101.315 126.348 101.315 125.592V124.963H101.316ZM107.043 118.764H110.211V123.132H114.742V118.764H117.92V130.69H114.742V125.682H110.21V130.69H107.043V118.764ZM120.65 118.764H123.693V126.254L128.562 118.764H131.673V130.69H128.629V123.065L123.693 130.69H120.65V118.764ZM134.447 118.764H137.401V120.516C137.792 119.909 138.326 119.408 138.956 119.055C139.619 118.679 140.369 118.486 141.131 118.494C142.522 118.494 143.701 119.038 144.671 120.123C145.639 121.208 146.124 122.72 146.124 124.66C146.124 126.651 145.636 128.201 144.658 129.308C143.682 130.409 142.498 130.959 141.109 130.959C140.485 130.967 139.869 130.833 139.305 130.567C138.772 130.304 138.208 129.855 137.614 129.218V135.226H134.447V118.764V118.764ZM137.581 124.524C137.581 125.865 137.848 126.857 138.381 127.5C138.914 128.137 139.564 128.455 140.33 128.455C141.067 128.455 141.68 128.163 142.168 127.579C142.656 126.988 142.901 126.022 142.901 124.682C142.901 123.431 142.648 122.503 142.146 121.897C141.642 121.29 141.018 120.988 140.275 120.988C139.501 120.988 138.858 121.287 138.347 121.886C137.837 122.478 137.581 123.357 137.581 124.524V124.524ZM146.442 118.764H149.811L152.674 127.231L155.47 118.764H158.749L154.523 130.241L153.768 132.319C153.489 133.014 153.223 133.546 152.968 133.913C152.738 134.261 152.443 134.562 152.099 134.799C151.777 135.032 151.375 135.212 150.893 135.338C150.367 135.473 149.825 135.537 149.282 135.53C148.68 135.531 148.079 135.466 147.49 135.338L147.208 132.868C147.704 132.966 148.152 133.014 148.55 133.014C149.286 133.014 149.83 132.797 150.184 132.363C150.536 131.936 150.808 131.389 150.995 130.723L146.442 118.764V118.764ZM160.319 118.764H163.362V126.254L168.23 118.764H171.341V130.69H168.298V123.065L163.362 130.69H160.319V118.764ZM167.904 113.924H169.447C169.357 114.942 168.997 115.744 168.366 116.327C167.742 116.903 166.93 117.192 165.932 117.192C164.933 117.192 164.117 116.903 163.485 116.327C162.861 115.744 162.506 114.942 162.414 113.924H163.959C164.012 114.455 164.199 114.86 164.522 115.137C164.846 115.407 165.315 115.541 165.932 115.541C166.547 115.541 167.017 115.407 167.341 115.137C167.663 114.86 167.851 114.455 167.904 113.924V113.924ZM172.786 118.764H183.617V121.313H179.785V130.69H176.618V121.313H172.786V118.764V118.764ZM192.061 126.895L195.217 127.422C194.811 128.574 194.169 129.454 193.29 130.061C192.419 130.66 191.325 130.959 190.011 130.959C187.928 130.959 186.388 130.282 185.389 128.927C184.6 127.842 184.205 126.471 184.205 124.817C184.205 122.841 184.724 121.295 185.761 120.178C186.798 119.055 188.109 118.494 189.694 118.494C191.475 118.494 192.881 119.082 193.91 120.257C194.939 121.426 195.432 123.218 195.387 125.636H187.451C187.474 126.572 187.729 127.303 188.218 127.826C188.707 128.343 189.316 128.601 190.044 128.601C190.54 128.601 190.957 128.465 191.295 128.196C191.634 127.927 191.888 127.494 192.061 126.895V126.895ZM192.241 123.705C192.219 122.792 191.983 122.1 191.532 121.627C191.324 121.397 191.07 121.214 190.786 121.091C190.502 120.967 190.196 120.905 189.886 120.909C189.195 120.909 188.623 121.16 188.173 121.661C187.721 122.163 187.5 122.844 187.508 123.705H192.241ZM203.54 118.764H206.583V126.254L211.451 118.764H214.562V130.69H211.519V123.065L206.583 130.69H203.54V118.764ZM223.335 118.764H233.964V130.69H230.797V121.313H226.502V130.69H223.335V118.764V118.764ZM237.877 118.764H248.483V130.69H245.326V121.325H241.009V126.681C241.009 128.043 240.853 129.001 240.537 129.556C240.221 130.102 239.871 130.461 239.489 130.633C239.105 130.806 238.489 130.891 237.641 130.891C237.136 130.891 236.471 130.825 235.645 130.69V128.365C235.713 128.365 235.889 128.373 236.176 128.388C236.506 128.41 236.761 128.421 236.942 128.421C237.37 128.421 237.633 128.283 237.731 128.006C237.829 127.722 237.877 126.939 237.877 125.658V118.764V118.764ZM253.669 122.402L250.795 121.886C251.119 120.733 251.675 119.879 252.464 119.326C253.252 118.772 254.425 118.494 255.981 118.494C257.392 118.494 258.444 118.663 259.136 119C259.827 119.329 260.312 119.753 260.59 120.268C260.876 120.778 261.018 121.717 261.018 123.087L260.985 126.77C260.985 127.82 261.033 128.593 261.131 129.095C261.236 129.589 261.428 130.121 261.706 130.69H258.572C258.458 130.383 258.356 130.072 258.267 129.757C258.234 129.633 258.197 129.509 258.155 129.387C257.654 129.884 257.066 130.284 256.42 130.567C255.796 130.83 255.125 130.963 254.447 130.959C253.214 130.959 252.242 130.627 251.528 129.96C250.821 129.294 250.468 128.451 250.468 127.434C250.468 126.76 250.631 126.161 250.953 125.636C251.274 125.107 251.744 124.685 252.305 124.424C252.892 124.14 253.734 123.893 254.83 123.683C256.311 123.405 257.336 123.147 257.907 122.908V122.593C257.907 121.987 257.757 121.556 257.457 121.302C257.156 121.04 256.589 120.909 255.755 120.909C255.191 120.909 254.752 121.021 254.435 121.246C254.121 121.462 253.865 121.848 253.669 122.402V122.402ZM257.907 124.963C257.501 125.097 256.859 125.258 255.981 125.445C255.101 125.633 254.526 125.816 254.255 125.996C253.843 126.288 253.636 126.659 253.636 127.108C253.636 127.549 253.801 127.931 254.132 128.253C254.462 128.574 254.883 128.736 255.393 128.736C255.965 128.736 256.51 128.549 257.029 128.174C257.411 127.89 257.663 127.542 257.784 127.13C257.866 126.86 257.907 126.348 257.907 125.592V124.963V124.963ZM262.339 118.764H273.171V121.313H269.338V130.69H266.171V121.313H262.339V118.764ZM274.604 118.764H277.647V126.254L282.516 118.764H285.627V130.69H282.584V123.065L277.647 130.69H274.604V118.764V118.764ZM287.072 118.764H297.903V121.313H294.071V130.69H290.903V121.313H287.072V118.764ZM306.347 126.895L309.502 127.422C309.097 128.574 308.454 129.454 307.575 130.061C306.704 130.66 305.611 130.959 304.296 130.959C302.214 130.959 300.673 130.282 299.674 128.927C298.885 127.842 298.491 126.471 298.491 124.817C298.491 122.841 299.009 121.295 300.046 120.178C301.083 119.055 302.394 118.494 303.98 118.494C305.761 118.494 307.166 119.082 308.196 120.257C309.224 121.426 309.717 123.218 309.672 125.636H301.736C301.76 126.572 302.014 127.303 302.503 127.826C302.991 128.343 303.601 128.601 304.329 128.601C304.825 128.601 305.243 128.465 305.58 128.196C305.919 127.927 306.174 127.494 306.347 126.895V126.895ZM306.527 123.705C306.505 122.792 306.268 122.1 305.816 121.627C305.609 121.397 305.355 121.214 305.071 121.09C304.788 120.967 304.481 120.905 304.171 120.909C303.481 120.909 302.909 121.16 302.458 121.661C302.008 122.163 301.785 122.844 301.794 123.705H306.527Z" fill="black" />
        <path fill-rule="evenodd" clip-rule="evenodd" d="M77.9347 40.0236C78.107 40.0236 78.246 40.157 78.2571 40.326V42.9497C78.2569 43.0317 78.2254 43.1104 78.1689 43.1697C78.1125 43.2291 78.0354 43.2646 77.9536 43.2688H71.3341V49.846C71.3341 50.0106 71.2096 50.1462 71.0484 50.164L71.0306 50.1651H68.398C68.316 50.1653 68.237 50.1342 68.1772 50.0782C68.1173 50.0223 68.0809 49.9456 68.0756 49.8638V42.9597C68.0769 42.197 68.3744 41.4646 68.9054 40.917C69.4364 40.3694 70.1593 40.0495 70.9217 40.0247H70.9695L71.024 40.0236H77.9347V40.0236ZM92.2598 46.9187C92.5277 46.9187 92.7467 47.13 92.7578 47.3935V64.1189C92.7578 64.3857 92.5466 64.6036 92.2809 64.6147H75.4944C75.3661 64.6151 75.2427 64.5659 75.1499 64.4775C75.0571 64.389 75.002 64.2681 74.9963 64.14V49.9616C74.9894 49.1661 75.2972 48.4 75.8526 47.8303C76.4079 47.2605 77.1659 46.9333 77.9614 46.9199H92.2598V46.9187ZM92.2598 67.2796C92.5188 67.2796 92.7323 67.4753 92.7556 67.7321L92.7578 67.7532V70.526H78.2538V81.7292H89.4993V73.1909H92.7578V84.4797C92.7575 84.6038 92.7108 84.7232 92.6268 84.8145C92.5429 84.9059 92.4278 84.9625 92.3043 84.9733L92.282 84.9756H78.0125C77.2251 84.9758 76.469 84.6679 75.9057 84.1177C75.3424 83.5675 75.0168 82.8188 74.9985 82.0316L74.9974 81.9816V67.7754C74.9974 67.5197 75.1931 67.3063 75.451 67.2818L75.4721 67.2807H92.2598V67.2796ZM104.463 81.7303V72.8651H101.204V78.7764H95.4339V84.5031C95.445 84.7665 95.664 84.9767 95.9319 84.9767H98.6925V82.0216H104.334V84.9767H110.231C111.027 84.9635 111.786 84.6362 112.341 84.0663C112.897 83.4963 113.205 82.7297 113.198 81.9338V75.8191H106.972V79.0654H109.939V81.7303H104.461H104.463ZM71.0128 81.7292C71.1841 81.7292 71.3241 81.8626 71.3341 82.0316V88.6255H77.7702C77.8491 88.6255 77.9253 88.6545 77.9844 88.7069C78.0434 88.7594 78.0811 88.8317 78.0903 88.9101L78.0914 88.9279V91.5505C78.0914 91.7217 77.958 91.8618 77.7879 91.8707H71.024C69.433 91.8707 68.1334 90.6144 68.0778 89.0368L68.0767 88.989V82.0494C68.0767 81.8793 68.2101 81.7381 68.3791 81.7292H71.0128V81.7292ZM119.799 81.7292C119.971 81.7292 120.111 81.8626 120.121 82.0316V88.9346C120.119 89.6971 119.822 90.4294 119.291 90.9769C118.76 91.5245 118.038 91.8445 117.276 91.8696L117.228 91.8707H110.261C110.18 91.8706 110.101 91.8394 110.041 91.7835C109.982 91.7276 109.946 91.651 109.94 91.5694V88.9457C109.941 88.8637 109.972 88.785 110.029 88.7255C110.085 88.6661 110.162 88.6303 110.244 88.6255H116.862V82.0483C116.862 81.8837 116.987 81.7481 117.148 81.7303L117.166 81.7281H119.799V81.7292ZM87.3247 72.6995V79.5568H80.4395V72.6995H87.3247ZM104.297 70.526V67.2796H95.9119C95.784 67.285 95.6631 67.3396 95.5745 67.432C95.4858 67.5244 95.4363 67.6474 95.4361 67.7754V76.1092H98.6947V70.526H104.298H104.297ZM113.198 67.7543C113.192 67.6264 113.137 67.5056 113.044 67.4172C112.952 67.3288 112.829 67.2795 112.701 67.2796H109.94V70.2358H106.973V73.4821H110.231V70.526H113.199V67.7754L113.198 67.7543V67.7543ZM113.195 49.8627C113.177 49.0756 112.852 48.3269 112.289 47.7767C111.726 47.2265 110.97 46.9185 110.183 46.9187H95.9097L95.8875 46.921C95.7639 46.9318 95.6488 46.9884 95.5649 47.0798C95.481 47.1711 95.4342 47.2905 95.4339 47.4146V64.1411L95.4361 64.1633C95.4606 64.419 95.674 64.6147 95.9319 64.6147H98.6925V50.1651H109.938V61.3695H107.301V64.6158H112.721L112.743 64.6136C112.867 64.6028 112.982 64.5461 113.066 64.4548C113.149 64.3634 113.196 64.244 113.197 64.12V49.9127L113.194 49.8627H113.195ZM104.626 61.3695V64.6147H101.368V61.3683H104.626V61.3695ZM78.2571 50.164H89.5026V61.3695H78.2571V50.1651V50.164ZM87.3258 52.3364V59.1948H80.4406V52.3364H87.3258ZM107.764 59.1948V52.3364H100.88V59.1948H107.764V59.1948ZM120.119 42.8575C120.092 42.0953 119.769 41.3737 119.22 40.8448C118.67 40.316 117.937 40.0211 117.174 40.0225H110.245C110.163 40.027 110.086 40.0627 110.029 40.1222C109.973 40.1818 109.941 40.2606 109.941 40.3427V42.9664L109.942 42.9842C109.952 43.0626 109.989 43.1349 110.048 43.1874C110.107 43.2398 110.184 43.2688 110.263 43.2688H116.863V49.8438L116.864 49.8627C116.869 49.9447 116.905 50.0218 116.964 50.0781C117.024 50.1344 117.103 50.1655 117.186 50.1651H119.818C119.9 50.1606 119.977 50.1249 120.034 50.0653C120.09 50.0058 120.122 49.9269 120.122 49.8449V42.9053L120.119 42.8564V42.8575Z" fill="#F13C33" />
        <path d="M137.242 82.0594V53.5704H143.015V66.2223L154.679 53.5704H162.442L151.675 64.6669L163.027 82.0594H155.557L147.697 68.6893L143.015 73.451V82.0594H137.242V82.0594ZM169.288 67.7176L164.316 66.8249C164.875 64.8293 165.836 63.3528 167.202 62.3934C168.567 61.435 170.596 60.9559 173.286 60.9559C175.731 60.9559 177.552 61.2472 178.748 61.8297C179.945 62.4001 180.784 63.1316 181.264 64.0255C181.759 64.9071 182.006 66.5325 182.006 68.9039L181.947 75.2776C181.947 77.0909 182.031 78.4328 182.2 79.3C182.383 80.1561 182.714 81.0755 183.196 82.0594H177.773C177.63 81.697 177.454 81.1589 177.246 80.4473C177.189 80.2314 177.124 80.0175 177.052 79.8058C176.116 80.7119 175.114 81.3923 174.048 81.8459C172.968 82.3022 171.807 82.5337 170.635 82.5263C168.502 82.5263 166.818 81.9493 165.583 80.7964C164.361 79.6435 163.75 78.186 163.75 76.4239C163.75 75.2576 164.029 74.2226 164.588 73.3154C165.143 72.3993 165.957 71.6688 166.928 71.2164C167.943 70.7238 169.4 70.2958 171.297 69.9334C173.859 69.4542 175.633 69.0073 176.623 68.5926V68.0478C176.623 66.9994 176.363 66.2545 175.842 65.8132C175.322 65.3607 174.34 65.1339 172.897 65.1339C171.922 65.1339 171.161 65.3284 170.615 65.7165C170.069 66.0922 169.628 66.7593 169.288 67.7176V67.7176ZM176.623 72.1491C175.92 72.3826 174.808 72.6605 173.286 72.9841C171.765 73.3087 170.772 73.6255 170.302 73.9368C169.589 74.4416 169.23 75.0831 169.23 75.8602C169.23 76.6251 169.516 77.2855 170.089 77.8425C170.66 78.3995 171.389 78.6785 172.272 78.6785C173.261 78.6785 174.204 78.355 175.101 77.7068C175.764 77.2143 176.199 76.6117 176.408 75.8991C176.552 75.4322 176.623 74.5461 176.623 73.2375V72.148V72.1491ZM184.699 76.1715L190.199 75.3366C190.432 76.3983 190.907 77.2077 191.623 77.7646C192.338 78.3094 193.338 78.5807 194.626 78.5807C196.043 78.5807 197.11 78.3216 197.824 77.8036C198.307 77.4411 198.546 76.9553 198.546 76.3471C198.546 75.9325 198.416 75.5889 198.157 75.3165C197.883 75.0575 197.272 74.8174 196.323 74.5972C191.902 73.6255 189.099 72.7384 187.916 71.9357C186.277 70.8206 185.459 69.273 185.459 67.2907C185.459 65.503 186.167 63.9999 187.585 62.7825C189.002 61.564 191.2 60.9559 194.178 60.9559C197.013 60.9559 199.118 61.415 200.497 62.3345C201.875 63.255 202.825 64.6158 203.344 66.4158L198.175 67.3685C197.954 66.5647 197.532 65.9499 196.908 65.523C196.297 65.095 195.419 64.8804 194.274 64.8804C192.831 64.8804 191.798 65.0816 191.174 65.483C190.758 65.7687 190.55 66.1378 190.55 66.5914C190.55 66.9805 190.731 67.3096 191.096 67.582C191.589 67.9444 193.293 68.457 196.205 69.1173C199.132 69.7777 201.173 70.5882 202.33 71.5465C203.474 72.5182 204.047 73.8724 204.047 75.6078C204.047 77.4989 203.253 79.1254 201.667 80.4851C200.081 81.8459 197.734 82.5263 194.626 82.5263C191.805 82.5263 189.567 81.956 187.916 80.8164C186.277 79.6758 185.206 78.1282 184.699 76.1715V76.1715ZM207.909 61.4217H213.019V64.4535C213.682 63.4173 214.58 62.5746 215.711 61.9276C216.842 61.2794 218.097 60.9559 219.475 60.9559C221.88 60.9559 223.923 61.8942 225.599 63.7731C227.277 65.652 228.116 68.2691 228.116 71.6244C228.116 75.0708 227.27 77.7524 225.58 79.6691C223.891 81.5736 221.842 82.5263 219.437 82.5263C218.292 82.5263 217.252 82.2995 216.316 81.8459C215.392 81.3923 214.417 80.6152 213.39 79.5146V89.9107H207.909V61.4217ZM213.332 71.3909C213.332 73.71 213.793 75.4266 214.716 76.5406C215.639 77.6412 216.764 78.1927 218.09 78.1927C219.366 78.1927 220.425 77.6879 221.269 76.6773C222.115 75.6534 222.538 73.9824 222.538 71.6633C222.538 69.4998 222.102 67.8933 221.23 66.8438C220.36 65.7943 219.281 65.2695 217.993 65.2695C216.653 65.2695 215.542 65.7876 214.658 66.8238C213.773 67.8477 213.332 69.3697 213.332 71.3909V71.3909ZM231.686 58.6234V53.5715H237.166V58.6234H231.686ZM231.686 82.0594V61.4217H237.166V82.0594H231.686ZM275.377 78.4462C276.8 79.4589 278.355 80.2697 280 80.8554L277.875 84.9166C276.988 84.6509 276.131 84.2924 275.32 83.8471C275.137 83.7571 273.855 82.9143 271.476 81.3212C269.604 82.1372 267.531 82.5452 265.255 82.5452C260.859 82.5452 257.414 81.2556 254.918 78.6785C252.434 76.1003 251.192 72.4793 251.192 67.8155C251.192 63.165 252.441 59.5495 254.937 56.9713C257.434 54.3809 260.82 53.0857 265.098 53.0857C269.338 53.0857 272.699 54.3809 275.183 56.9713C277.667 59.5506 278.908 63.1638 278.908 67.8155C278.908 70.2769 278.563 72.4404 277.875 74.3059C277.354 75.7312 276.523 77.1109 275.377 78.445V78.4462ZM270.736 75.1998C271.476 74.3326 272.029 73.282 272.394 72.0513C272.77 70.8206 272.959 69.4086 272.959 67.8155C272.959 64.5246 272.231 62.0699 270.775 60.45C269.318 58.818 267.413 58.0019 265.059 58.0019C262.706 58.0019 260.794 58.818 259.326 60.45C257.869 62.0832 257.141 64.538 257.141 67.8155C257.141 71.1452 257.869 73.6389 259.326 75.2976C260.794 76.943 262.648 77.7658 264.885 77.7658C265.689 77.7704 266.488 77.6318 267.244 77.3566C266.13 76.6201 264.932 76.02 263.675 75.5689L265.294 72.2848C267.193 72.9329 269.006 73.9046 270.736 75.1998V75.1998ZM282.673 82.0594V53.5704H294.824C297.88 53.5704 300.098 53.8295 301.475 54.3487C302.867 54.8534 303.979 55.7606 304.81 57.0691C305.643 58.3777 306.059 59.8741 306.059 61.5585C306.059 63.6953 305.428 65.4641 304.168 66.8627C302.906 68.2491 301.02 69.124 298.511 69.4864C299.76 70.2124 300.786 71.0096 301.593 71.8767C302.412 72.7439 303.511 74.287 304.888 76.5017L308.38 82.0605H301.475L297.301 75.8602C295.819 73.6456 294.804 72.2525 294.259 71.6822C293.713 71.0996 293.133 70.7038 292.523 70.497C291.912 70.2769 290.943 70.1668 289.617 70.1668H288.446V82.0594H282.673V82.0594ZM288.446 65.6197H292.718C295.487 65.6197 297.217 65.503 297.906 65.2695C298.565 65.059 299.134 64.6349 299.525 64.0644C299.915 63.4951 300.11 62.7825 300.11 61.9276C300.11 60.9681 299.851 60.1977 299.33 59.6151C298.823 59.0192 298.102 58.6434 297.165 58.4878C296.697 58.4233 295.293 58.3899 292.952 58.3899H288.446V65.6197Z" fill="black" />
        <path d="M137.242 82.0593H136.828V82.4717H137.242V82.0604V82.0593ZM137.242 53.5703V53.1589H136.828V53.5703H137.242ZM143.015 53.5703H143.429V53.1589H143.015V53.5703ZM143.015 66.2222H142.602V67.2795L143.32 66.5012L143.015 66.2222V66.2222ZM154.679 53.5703V53.1589H154.498L154.374 53.2924L154.679 53.5703ZM162.442 53.5703L162.739 53.8571L163.417 53.1589H162.442V53.5703ZM151.675 64.6668L151.378 64.3811L151.149 64.6168L151.329 64.8914L151.675 64.6668V64.6668ZM163.027 82.0593V82.4717H163.789L163.374 81.8347L163.027 82.0593ZM155.557 82.0593L155.2 82.2683L155.319 82.4717H155.557V82.0604V82.0593ZM147.697 68.6892L148.054 68.4813L147.78 68.0166L147.401 68.4012L147.697 68.6903V68.6892ZM143.015 73.4509L142.719 73.1618L142.602 73.283V73.4498H143.015V73.4509ZM143.015 82.0593V82.4717H143.429V82.0604H143.015V82.0593ZM137.655 82.0593V53.5703H136.828V82.0593H137.655ZM137.242 53.9828H143.015V53.1589H137.242V53.9828ZM142.602 53.5714V66.2222H143.429V53.5703H142.602V53.5714ZM143.32 66.5012L154.983 53.8493L154.374 53.2924L142.711 65.9431L143.32 66.5001V66.5012ZM154.679 53.9828H162.442V53.1589H154.679V53.9828ZM162.144 53.2846L151.378 64.38L151.973 64.9536L162.739 53.8582L162.144 53.2846ZM151.329 64.8914L162.68 82.2838L163.374 81.8347L152.022 64.4422L151.329 64.8914V64.8914ZM163.027 81.6479H155.557V82.4717H163.027V81.6479ZM155.913 81.8514L148.054 68.4813L147.34 68.8982L155.2 82.2683L155.913 81.8514ZM147.401 68.4012L142.719 73.1629L143.311 73.7388L147.991 68.9782L147.401 68.4012V68.4012ZM142.602 73.4509V82.0593H143.429V73.4509H142.602ZM143.015 81.6479H137.242V82.4717H143.015V81.6479ZM169.288 67.7175L169.215 68.1233L169.562 68.1856L169.679 67.8542L169.288 67.7186V67.7175ZM164.316 66.8247L163.916 66.7136L163.795 67.1494L164.241 67.2294L164.316 66.8247V66.8247ZM167.202 62.3933L166.964 62.0564L167.202 62.3933ZM178.748 61.8296L178.566 62.1998L178.569 62.202L178.748 61.8296ZM181.264 64.0253L180.9 64.221L180.903 64.2266L181.264 64.0264V64.0253ZM182.006 68.9038L182.419 68.9071V68.9038H182.006ZM181.947 75.2775L181.533 75.2742V75.2775H181.947ZM182.2 79.2999L181.795 79.3777L181.796 79.3855L182.2 79.2999ZM183.196 82.0593V82.4717H183.857L183.567 81.8792L183.196 82.0593ZM177.773 82.0593L177.389 82.2105L177.491 82.4717H177.773V82.0604V82.0593ZM177.246 80.4472L176.848 80.5584L176.85 80.5617L177.246 80.4472ZM177.052 79.8057L177.439 79.6612L177.216 79.0708L176.763 79.51L177.052 79.8057V79.8057ZM165.583 80.7963L165.298 81.0965H165.301L165.583 80.7963ZM164.588 73.3141L164.94 73.5309L164.943 73.5287L164.588 73.3152V73.3141ZM166.928 71.2162L167.108 71.5875H167.109L166.928 71.2162ZM171.297 69.9332L171.221 69.5286H171.22L171.297 69.9332ZM176.623 68.5925L176.783 68.9727L177.036 68.866V68.5925H176.623ZM175.842 65.813L175.57 66.1243L175.574 66.1277L175.842 65.8142V65.813ZM170.615 65.7163L170.849 66.0554L170.856 66.0521L170.615 65.7163ZM176.623 72.149H177.036V71.5775L176.492 71.7576L176.623 72.149V72.149ZM170.302 73.9367L170.073 73.5932L170.069 73.5976L170.063 73.601L170.302 73.9367V73.9367ZM175.101 77.7067L175.343 78.0402L175.349 78.0369L175.101 77.7067V77.7067ZM176.408 75.899L176.012 75.7789L176.011 75.7845L176.408 75.899V75.899ZM169.362 67.3128L164.389 66.419L164.241 67.2305L169.215 68.1233L169.362 67.3117V67.3128ZM164.714 66.9348C165.253 65.0081 166.17 63.6218 167.44 62.7301L166.964 62.0564C165.502 63.0826 164.495 64.6501 163.916 66.7136L164.714 66.9359V66.9348ZM167.44 62.7301C168.705 61.8418 170.633 61.3671 173.286 61.3671V60.5433C170.558 60.5433 168.429 61.0269 166.964 62.0564L167.44 62.7301V62.7301ZM173.286 61.3671C175.713 61.3671 177.457 61.6595 178.566 62.2009L178.931 61.4594C177.648 60.8346 175.75 60.5433 173.286 60.5433V61.3671ZM178.569 62.2009C179.71 62.7457 180.472 63.4239 180.9 64.221L181.629 63.8319C181.095 62.8391 180.179 62.0542 178.927 61.4583L178.569 62.202V62.2009ZM180.903 64.2266C181.115 64.6046 181.291 65.1771 181.411 65.9676C181.53 66.7536 181.592 67.7308 181.592 68.9026H182.419C182.419 67.7053 182.357 66.6847 182.229 65.8453C182.103 65.0092 181.907 64.3277 181.626 63.8252L180.903 64.2266ZM181.592 68.8993L181.533 75.2742L182.361 75.2808L182.419 68.9071L181.592 68.8993ZM181.533 75.2775C181.533 77.0963 181.618 78.4705 181.795 79.3788L182.607 79.222C182.445 78.3938 182.361 77.0863 182.361 75.2775H181.533ZM181.796 79.3855C181.987 80.2804 182.332 81.2321 182.824 82.2405L183.567 81.8792C183.098 80.9175 182.779 80.0303 182.605 79.2143L181.796 79.3855V79.3855ZM183.196 81.6479H177.773V82.4717H183.196V81.6479ZM178.158 81.9092C178.022 81.5645 177.851 81.0409 177.644 80.3316L176.85 80.5617C177.059 81.2777 177.238 81.8291 177.389 82.2105L178.158 81.9092V81.9092ZM177.644 80.336C177.584 80.1087 177.515 79.8836 177.439 79.6612L176.664 79.9502C176.696 80.0347 176.756 80.2304 176.848 80.5584L177.644 80.336ZM176.763 79.51C175.859 80.3861 174.9 81.0353 173.886 81.4667L174.21 82.2249C175.329 81.7491 176.371 81.0387 177.34 80.1014L176.763 79.51V79.51ZM173.886 81.4667C172.857 81.9009 171.751 82.1211 170.635 82.1137V82.9387C171.863 82.9458 173.079 82.703 174.21 82.2249L173.886 81.4667ZM170.635 82.1137C168.579 82.1137 167.005 81.5601 165.865 80.4961L165.301 81.0965C166.63 82.3394 168.426 82.9376 170.635 82.9376V82.1149V82.1137ZM165.868 80.4972C164.732 79.4266 164.163 78.0791 164.163 76.4237H163.336C163.336 78.2926 163.989 79.8602 165.298 81.0954L165.868 80.4972ZM164.163 76.4237C164.163 75.3264 164.426 74.367 164.94 73.5309L164.235 73.0995C163.633 74.0779 163.336 75.1897 163.336 76.4237H164.163V76.4237ZM164.943 73.5287C165.455 72.6807 166.209 72.0049 167.108 71.5875L166.75 70.8449C165.707 71.3314 164.831 72.1169 164.234 73.1018L164.943 73.5287ZM167.109 71.5864C168.076 71.1173 169.492 70.6981 171.376 70.3379L171.22 69.5286C169.307 69.8943 167.81 70.329 166.747 70.846L167.109 71.5864ZM171.374 70.3379C173.936 69.8599 175.75 69.4063 176.783 68.9727L176.462 68.2122C175.519 68.608 173.783 69.0494 171.221 69.5286L171.374 70.3379V70.3379ZM177.036 68.5925V68.0477H176.209V68.5925H177.036ZM177.036 68.0477C177.036 66.9437 176.763 66.0532 176.11 65.4995L175.574 66.1277C175.961 66.4556 176.209 67.0538 176.209 68.0488H177.036V68.0477ZM176.115 65.504C175.786 65.216 175.339 65.0248 174.809 64.9025C174.278 64.7802 173.638 64.7213 172.897 64.7213V65.5451C173.6 65.5451 174.172 65.6007 174.622 65.7052C175.075 65.8097 175.379 65.9576 175.57 66.1243L176.115 65.504V65.504ZM172.897 64.7213C171.873 64.7213 171.016 64.9247 170.375 65.3806L170.856 66.0521C171.306 65.7308 171.971 65.5451 172.897 65.5451V64.7224V64.7213ZM170.38 65.3772C169.733 65.8219 169.251 66.5824 168.898 67.5819L169.679 67.8542C170.002 66.937 170.406 66.3611 170.849 66.0554L170.38 65.3772V65.3772ZM176.492 71.7588C175.812 71.9833 174.719 72.2591 173.201 72.5815L173.374 73.3875C174.897 73.0629 176.028 72.7805 176.753 72.5392L176.492 71.7576V71.7588ZM173.201 72.5815C172.433 72.7449 171.789 72.9083 171.274 73.0729C170.765 73.2352 170.356 73.4064 170.073 73.5932L170.533 74.2791C170.718 74.1568 171.039 74.0123 171.526 73.8578C172.007 73.7043 172.62 73.5476 173.374 73.3875L173.201 72.5815ZM170.063 73.601C169.255 74.1724 168.816 74.9317 168.816 75.8601H169.643C169.643 75.2353 169.921 74.7116 170.543 74.2725L170.063 73.601V73.601ZM168.816 75.8601C168.816 76.7406 169.152 77.5066 169.799 78.137L170.377 77.5477C169.881 77.0652 169.643 76.5093 169.643 75.8601H168.816ZM169.799 78.137C170.457 78.7784 171.293 79.0908 172.272 79.0908V78.2659C171.484 78.2659 170.864 78.0213 170.377 77.5477L169.799 78.137V78.137ZM172.272 79.0908C173.359 79.0908 174.385 78.7329 175.343 78.0402L174.858 77.3732C174.023 77.9758 173.164 78.2659 172.272 78.2659V79.0908V79.0908ZM175.349 78.0369C176.075 77.4977 176.568 76.8229 176.805 76.0135L176.011 75.7845C175.831 76.4015 175.453 76.9318 174.854 77.3765L175.349 78.0369ZM176.804 76.0202C176.967 75.4865 177.036 74.5393 177.036 73.2374H176.209C176.209 74.5515 176.135 75.3798 176.012 75.7789L176.804 76.0202ZM177.036 73.2374V72.1479H176.209V73.2374H177.036ZM184.699 76.1725L184.635 75.7645L184.183 75.8334L184.298 76.2748L184.699 76.1714V76.1725ZM190.199 75.3364L190.602 75.2475L190.519 74.8695L190.136 74.9284L190.199 75.3364V75.3364ZM191.623 77.7645L191.368 78.0891L191.371 78.0925L191.623 77.7645V77.7645ZM197.824 77.8034L198.068 78.137L198.074 78.1325L197.824 77.8034V77.8034ZM198.157 75.3164L198.456 75.0318L198.449 75.0251L198.442 75.0173L198.157 75.3164ZM196.323 74.5971L196.417 74.1969L196.412 74.1946L196.323 74.5971ZM187.916 71.9355L187.683 72.2757L187.916 71.9355ZM187.585 62.7824L187.855 63.0937L187.585 62.7824ZM200.497 62.3354L200.727 61.993L200.497 62.3354ZM203.344 66.4156L203.42 66.8214L203.868 66.7391L203.742 66.3022L203.344 66.4156ZM198.175 67.3684L197.776 67.4774L197.877 67.842L198.251 67.7731L198.175 67.3684V67.3684ZM196.908 65.5229L196.67 65.8597L196.673 65.862L196.908 65.5218V65.5229ZM191.174 65.4829L190.949 65.1371L190.944 65.1404L190.939 65.1438L191.174 65.4829V65.4829ZM191.096 67.5819L190.848 67.9121L190.85 67.9143L191.096 67.5819ZM196.205 69.1172L196.114 69.5197L196.205 69.1172ZM202.33 71.5464L202.599 71.2329L202.595 71.2296L202.33 71.5464ZM187.916 80.8163L187.679 81.1543H187.68L187.916 80.8163ZM184.76 76.5794L190.261 75.7433L190.136 74.9284L184.635 75.7645L184.76 76.5794ZM189.794 75.4243C190.045 76.5605 190.562 77.4621 191.368 78.0891L191.876 77.4399C191.252 76.954 190.82 76.2358 190.602 75.2475L189.794 75.4243V75.4243ZM191.371 78.0925C192.183 78.7106 193.286 78.993 194.626 78.993V78.1692C193.391 78.1692 192.491 77.9079 191.873 77.4377L191.371 78.0925ZM194.626 78.993C196.082 78.993 197.25 78.7295 198.068 78.137L197.582 77.4699C196.968 77.9146 196.004 78.1692 194.626 78.1692V78.993V78.993ZM198.074 78.1325C198.355 77.9286 198.583 77.6594 198.737 77.3482C198.891 77.037 198.967 76.6931 198.959 76.3459H198.132C198.132 76.8284 197.951 77.1908 197.575 77.4755L198.074 78.1325ZM198.959 76.3459C198.959 75.8378 198.797 75.3898 198.456 75.0318L197.856 75.601C198.035 75.7878 198.132 76.0257 198.132 76.3459H198.959ZM198.442 75.0173C198.248 74.8339 197.969 74.686 197.644 74.5593C197.244 74.409 196.834 74.2875 196.417 74.1957L196.229 74.9984C196.607 75.081 196.979 75.1903 197.342 75.3253C197.628 75.4387 197.792 75.5399 197.871 75.6144L198.442 75.0173V75.0173ZM196.412 74.1946C194.208 73.7099 192.415 73.2496 191.031 72.8105C189.636 72.3691 188.689 71.9611 188.148 71.5942L187.683 72.2757C188.327 72.7127 189.372 73.1496 190.78 73.5954C192.197 74.0445 194.016 74.5126 196.234 74.9996L196.412 74.1946ZM188.15 71.5942C186.624 70.5581 185.873 69.1372 185.873 67.2906H185.044C185.044 69.4085 185.932 71.0839 187.683 72.2757L188.15 71.5942V71.5942ZM185.873 67.2906C185.873 65.6285 186.524 64.2377 187.855 63.0937L187.315 62.4711C185.811 63.7618 185.044 65.3772 185.044 67.2906H185.873ZM187.855 63.0937C189.163 61.9697 191.244 61.3671 194.178 61.3671V60.5433C191.156 60.5433 188.84 61.1592 187.315 62.47L187.855 63.0948V63.0937ZM194.178 61.3671C196.981 61.3671 198.989 61.8251 200.267 62.6779L200.727 61.993C199.247 61.0058 197.043 60.5433 194.178 60.5433V61.3671ZM200.267 62.6779C201.553 63.5361 202.45 64.8091 202.947 66.5301L203.742 66.3022C203.198 64.4211 202.197 62.9736 200.727 61.993L200.267 62.6779V62.6779ZM203.268 66.0109L198.1 66.9626L198.251 67.7742L203.42 66.8214L203.268 66.0098V66.0109ZM198.575 67.2595C198.331 66.3723 197.855 65.6707 197.143 65.1827L196.673 65.8609C197.209 66.2277 197.578 66.7569 197.776 67.4774L198.575 67.2595V67.2595ZM197.146 65.1849C196.437 64.6891 195.462 64.4689 194.274 64.4689V65.2927C195.377 65.2927 196.156 65.5006 196.67 65.8597L197.146 65.1849ZM194.274 64.4689C192.814 64.4689 191.678 64.6679 190.949 65.1371L191.398 65.8297C191.917 65.4962 192.849 65.2927 194.274 65.2927V64.4689V64.4689ZM190.939 65.1438C190.425 65.4962 190.136 65.9854 190.136 66.5913H190.963C190.963 66.29 191.09 66.041 191.408 65.8231L190.939 65.1438ZM190.136 66.5913C190.136 67.1316 190.399 67.5763 190.848 67.9121L191.344 67.2528C191.065 67.0438 190.963 66.827 190.963 66.5913H190.136V66.5913ZM190.85 67.9143C191.017 68.0366 191.256 68.1522 191.539 68.2645C191.829 68.3801 192.192 68.5024 192.624 68.6325C193.489 68.8926 194.653 69.1884 196.114 69.5197L196.298 68.7159C194.845 68.3857 193.702 68.0955 192.863 67.8431C192.52 67.7425 192.18 67.6276 191.846 67.4985C191.669 67.4353 191.5 67.3522 191.341 67.2506L190.85 67.9143V67.9143ZM196.114 69.5197C199.027 70.1767 200.987 70.9705 202.065 71.8633L202.595 71.2296C201.358 70.2056 199.235 69.3785 196.298 68.7159L196.114 69.5197V69.5197ZM202.062 71.8599C203.098 72.7405 203.633 73.9723 203.633 75.6077H204.46C204.46 73.7733 203.85 72.2946 202.599 71.2329L202.062 71.8599V71.8599ZM203.633 75.6077C203.633 77.3665 202.903 78.8818 201.397 80.1737L201.937 80.7974C203.604 79.3688 204.46 77.6322 204.46 75.6077H203.633V75.6077ZM201.397 80.1737C199.915 81.4445 197.682 82.1137 194.626 82.1137V82.9387C197.785 82.9387 200.246 82.2472 201.937 80.7974L201.397 80.1737V80.1737ZM194.626 82.1137C191.856 82.1137 189.712 81.5534 188.152 80.4772L187.68 81.1554C189.425 82.3583 191.753 82.9376 194.626 82.9376V82.1149V82.1137ZM188.153 80.4783C186.596 79.3955 185.581 77.9313 185.099 76.068L184.298 76.2748C184.829 78.3248 185.959 79.9569 187.679 81.1543L188.153 80.4783V80.4783ZM207.909 61.4227V61.0102H207.495V61.4216H207.909V61.4227ZM213.019 61.4227H213.433V61.0102H213.019V61.4216V61.4227ZM213.019 64.4534H212.605V65.8664L213.368 64.6746L213.019 64.4534ZM215.711 61.9274L215.506 61.5694L215.711 61.9274ZM225.599 63.773L225.291 64.0476L225.599 63.773ZM225.58 79.669L225.889 79.9425L225.892 79.9413L225.58 79.669V79.669ZM216.316 81.8458L216.133 82.216H216.135L216.316 81.8458V81.8458ZM213.39 79.5144L213.693 79.2332L212.976 78.466V79.5133H213.39V79.5144ZM213.39 89.9105V90.3219H213.803V89.9105H213.39ZM207.909 89.9105H207.495V90.3219H207.909V89.9105ZM214.716 76.5405L214.397 76.8028L214.399 76.8051L214.716 76.5405ZM221.269 76.6772L221.587 76.9407L221.589 76.9385L221.269 76.6772ZM214.658 66.8247L214.972 67.0927L214.973 67.0905L214.658 66.8236V66.8247ZM207.909 61.8329H213.019V61.0102H207.909V61.8329ZM212.605 61.4216V64.4534H213.433V61.4216H212.605ZM213.368 64.6746C213.994 63.6974 214.84 62.9013 215.917 62.2843L215.506 61.5694C214.319 62.2476 213.371 63.137 212.671 64.2321L213.368 64.6746V64.6746ZM215.917 62.2843C216.982 61.6751 218.166 61.3671 219.475 61.3671V60.5433C218.029 60.5433 216.702 60.8835 215.506 61.5694L215.917 62.2843ZM219.475 61.3671C221.757 61.3671 223.687 62.2521 225.291 64.0465L225.908 63.4995C224.157 61.5383 222.006 60.5433 219.475 60.5433V61.3671ZM225.291 64.0465C226.881 65.8275 227.703 68.3356 227.703 71.6242H228.53C228.53 68.2022 227.674 65.4762 225.908 63.4995L225.291 64.0476V64.0465ZM227.703 71.6242C227.703 75.0051 226.873 77.5777 225.269 79.3977L225.892 79.9413C227.667 77.9257 228.53 75.1352 228.53 71.6242H227.703V71.6242ZM225.27 79.3955C223.653 81.2188 221.716 82.1137 219.437 82.1137V82.9387C221.968 82.9387 224.127 81.9292 225.889 79.9425L225.27 79.3966V79.3955ZM219.437 82.1137C218.348 82.1137 217.37 81.8992 216.496 81.4756L216.135 82.216C217.133 82.6996 218.236 82.9387 219.437 82.9387V82.1137ZM216.498 81.4767C215.637 81.0531 214.701 80.3138 213.693 79.2332L213.086 79.7946C214.135 80.9175 215.149 81.7324 216.133 82.216L216.498 81.4767V81.4767ZM212.976 79.5133V89.9105H213.803V79.5133H212.976V79.5133ZM213.39 89.4981H207.909V90.323H213.39V89.497V89.4981ZM208.323 89.9105V61.4216H207.495V89.9105H208.323ZM212.919 71.3908C212.919 73.751 213.385 75.5821 214.397 76.8028L215.035 76.2781C214.2 75.2708 213.746 73.6688 213.746 71.3908H212.919V71.3908ZM214.399 76.8051C215.392 77.9902 216.631 78.605 218.09 78.605V77.7801C216.899 77.7801 215.886 77.2931 215.033 76.277L214.399 76.8051V76.8051ZM218.09 78.605C219.492 78.605 220.668 78.0413 221.587 76.9407L220.952 76.4126C220.183 77.3332 219.237 77.7801 218.09 77.7801V78.605V78.605ZM221.589 76.9385C222.528 75.8045 222.951 74.0134 222.951 71.6631H222.124C222.124 73.9512 221.703 75.5032 220.95 76.4148L221.589 76.9385V76.9385ZM222.951 71.6631C222.951 69.4563 222.509 67.7364 221.549 66.5813L220.912 67.106C221.695 68.0488 222.124 69.5419 222.124 71.6631H222.951ZM221.549 66.5813C220.605 65.4439 219.412 64.858 217.993 64.858V65.6807C219.149 65.6807 220.114 66.1444 220.912 67.106L221.549 66.5813V66.5813ZM217.993 64.858C216.53 64.858 215.304 65.4306 214.343 66.5568L214.973 67.0905C215.78 66.1455 216.777 65.6819 217.993 65.6819V64.8569V64.858ZM214.345 66.5557C213.37 67.683 212.919 69.3184 212.919 71.3919H213.746C213.746 69.4207 214.177 68.0121 214.972 67.0927L214.345 66.5557V66.5557ZM231.686 58.6233H231.272V59.0346H231.686V58.6233ZM231.686 53.5714V53.1589H231.272V53.5703H231.686V53.5714ZM237.166 53.5714H237.58V53.1589H237.166V53.5703V53.5714ZM237.166 58.6233V59.0346H237.58V58.6233H237.166ZM231.686 82.0593H231.272V82.4717H231.686V82.0604V82.0593ZM231.686 61.4216V61.0102H231.272V61.4216H231.686ZM237.166 61.4216H237.58V61.0102H237.166V61.4216ZM237.166 82.0593V82.4717H237.58V82.0604H237.166V82.0593ZM232.1 58.6233V53.5714H231.272V58.6233H232.1ZM231.686 53.9828H237.166V53.1589H231.686V53.9828ZM236.753 53.5714V58.6233H237.58V53.5714H236.753ZM237.166 58.2108H231.686V59.0357H237.166V58.2108ZM232.1 82.0593V61.4216H231.272V82.0593H232.1ZM231.686 61.834H237.166V61.0091H231.686V61.834ZM236.753 61.4227V82.0593H237.58V61.4216H236.753V61.4227ZM237.166 81.6479H231.686V82.4717H237.166V81.6479ZM275.377 78.446L275.063 78.177L274.77 78.5194L275.137 78.7807L275.377 78.4449V78.446ZM280 80.8552L280.367 81.0453L280.586 80.6273L280.14 80.4672L280 80.8552ZM277.875 84.9165L277.756 85.3112L278.084 85.409L278.241 85.1066L277.875 84.9165V84.9165ZM275.32 83.847L275.518 83.4857L275.511 83.4823L275.504 83.479L275.32 83.847ZM271.476 81.3211L271.708 80.9786L271.519 80.853L271.312 80.9442L271.476 81.3222V81.3211ZM254.918 78.6784L254.62 78.9641L254.918 78.6784ZM254.937 56.9712L255.235 57.258H255.236L254.937 56.9712ZM275.183 56.9712L274.884 57.2569L275.183 56.9712ZM277.875 74.3058L277.486 74.1635L277.485 74.1646L277.875 74.3058ZM270.736 75.1997L270.487 75.5288L270.798 75.7622L271.05 75.4665L270.736 75.1997V75.1997ZM272.393 72.0512L271.998 71.9311L271.997 71.9355L272.393 72.0512ZM270.775 60.4499L270.466 60.7245H270.467L270.775 60.4499ZM259.326 60.4499L259.017 60.1753V60.1764L259.326 60.4499ZM259.326 75.2975L259.013 75.5688L259.017 75.571L259.326 75.2975V75.2975ZM267.245 77.3565L267.387 77.7434L268.158 77.461L267.471 77.0118L267.245 77.3565ZM263.675 75.5688L263.304 75.3876L263.099 75.8022L263.536 75.9579L263.675 75.5688V75.5688ZM265.294 72.2846L265.427 71.8955L265.084 71.7777L264.922 72.1034L265.294 72.2846V72.2846ZM275.137 78.7807C276.59 79.8159 278.18 80.6446 279.86 81.2432L280.14 80.4672C278.531 79.8942 277.009 79.101 275.618 78.1103L275.137 78.7807ZM279.633 80.664L277.508 84.7253L278.241 85.1066L280.367 81.0453L279.633 80.664ZM277.992 84.5218C277.133 84.2643 276.304 83.917 275.518 83.4857L275.121 84.2083C275.977 84.6752 276.856 85.0432 277.756 85.3112L277.992 84.5218V84.5218ZM275.504 83.479L275.48 83.4656L275.415 83.4267C275.092 83.222 274.77 83.0144 274.45 82.8041C273.811 82.3839 272.897 81.7758 271.708 80.9786L271.246 81.6635C272.437 82.4606 273.352 83.0699 273.994 83.4923C274.315 83.7036 274.568 83.867 274.754 83.9859C274.929 84.0971 275.065 84.1816 275.134 84.2161L275.504 83.479V83.479ZM271.312 80.9442C269.496 81.7346 267.481 82.1337 265.255 82.1337V82.9576C267.581 82.9576 269.712 82.5407 271.643 81.699L271.312 80.943V80.9442ZM265.255 82.1337C260.946 82.1337 257.617 80.873 255.215 78.3927L254.62 78.9641C257.211 81.6401 260.774 82.9576 265.255 82.9576V82.1337ZM255.216 78.3927C252.826 75.9134 251.606 72.4058 251.606 67.8153H250.779C250.779 72.5515 252.04 76.287 254.62 78.9641L255.216 78.3927V78.3927ZM251.606 67.8153C251.606 63.2382 252.832 59.7384 255.235 57.258L254.64 56.6855C252.048 59.3615 250.779 63.0903 250.779 67.8142H251.606V67.8153ZM255.236 57.2569C257.639 54.7621 260.911 53.4969 265.098 53.4969V52.6731C260.731 52.6731 257.228 53.9994 254.639 56.6866L255.236 57.2569V57.2569ZM265.098 53.4969C269.246 53.4969 272.491 54.761 274.884 57.2569L275.482 56.6866C272.906 54.0005 269.43 52.6731 265.098 52.6731V53.4969ZM274.884 57.2569C277.273 59.7372 278.495 63.2382 278.495 67.8153H279.322C279.322 63.0903 278.058 59.3626 275.481 56.6866L274.884 57.2569V57.2569ZM278.495 67.8153C278.495 70.239 278.156 72.3524 277.486 74.1635L278.263 74.4481C278.972 72.5281 279.322 70.3146 279.322 67.8153H278.495V67.8153ZM277.485 74.1646C276.985 75.5365 276.18 76.8751 275.063 78.1781L275.692 78.7129C276.864 77.3465 277.723 75.9245 278.263 74.447L277.485 74.1646V74.1646ZM271.05 75.4665C271.834 74.5493 272.411 73.4475 272.79 72.1679L271.997 71.9344C271.648 73.1173 271.121 74.1135 270.42 74.9329L271.05 75.4665V75.4665ZM272.789 72.1723C273.181 70.8938 273.373 69.4396 273.373 67.8142H272.546C272.546 69.3774 272.36 70.7471 271.998 71.9311L272.789 72.1723ZM273.373 67.8142C273.373 64.4734 272.635 61.9007 271.083 60.1753L270.467 60.7256C271.828 62.2376 272.546 64.5757 272.546 67.8153H273.373V67.8142ZM271.084 60.1764C269.543 58.4487 267.522 57.5893 265.059 57.5893V58.4143C267.305 58.4143 269.094 59.1869 270.466 60.7245L271.084 60.1764ZM265.059 57.5893C262.598 57.5893 260.572 58.4487 259.017 60.1753L259.634 60.7256C261.018 59.1869 262.815 58.4131 265.059 58.4131V57.5904V57.5893ZM259.017 60.1764C257.466 61.9141 256.728 64.4856 256.728 67.8142H257.555C257.555 64.5901 258.273 62.2509 259.634 60.7245L259.017 60.1764V60.1764ZM256.728 67.8142C256.728 71.1951 257.465 73.8044 259.013 75.5688L259.637 75.0251C258.273 73.4731 257.555 71.0939 257.555 67.8153H256.728V67.8142ZM259.017 75.571C260.565 77.3054 262.531 78.177 264.885 78.177V77.3532C262.763 77.3532 261.025 76.5794 259.634 75.0229L259.017 75.571V75.571ZM264.885 78.177C265.763 78.177 266.598 78.0325 267.387 77.7434L267.101 76.9707C266.391 77.2284 265.64 77.3579 264.885 77.3532V78.177ZM267.471 77.0118C266.329 76.2578 265.102 75.6431 263.814 75.1808L263.536 75.9568C264.712 76.3726 265.873 76.954 267.018 77.7023L267.471 77.013V77.0118ZM264.046 75.7511L265.665 72.467L264.922 72.1034L263.304 75.3876L264.046 75.7511ZM265.159 72.6749C267.015 73.3075 268.79 74.258 270.487 75.5288L270.985 74.8706C269.223 73.5509 267.371 72.5581 265.427 71.8955L265.159 72.6737V72.6749ZM282.673 82.0593H282.259V82.4717H282.673V82.0604V82.0593ZM282.673 53.5703V53.1589H282.259V53.5703H282.673ZM301.475 54.3485L301.329 54.7343L301.334 54.7354L301.475 54.3485V54.3485ZM304.168 66.8637L304.473 67.1394H304.475L304.168 66.8637V66.8637ZM298.511 69.4874L298.452 69.0783L297.279 69.2484L298.303 69.8421L298.511 69.4863V69.4874ZM301.593 71.8777L301.289 72.1557L301.292 72.159L301.593 71.8766V71.8777ZM304.888 76.5027L304.537 76.7195H304.538L304.888 76.5015V76.5027ZM308.38 82.0593V82.4717H309.126L308.73 81.8414L308.38 82.0593ZM301.475 82.0593L301.132 82.2894L301.255 82.4717H301.475V82.0604V82.0593ZM297.301 75.8601L296.958 76.0891L297.301 75.8601ZM294.259 71.682L293.956 71.9633L293.959 71.9667L294.259 71.682ZM292.523 70.4969L292.382 70.8849L292.39 70.8871L292.523 70.498V70.4969ZM288.446 70.1667V69.7554H288.033V70.1667H288.446ZM288.446 82.0593V82.4717H288.86V82.0604H288.446V82.0593ZM288.446 65.6196H288.033V66.031H288.446V65.6196ZM299.33 59.615L299.014 59.8818L299.02 59.8885L299.33 59.615V59.615ZM297.165 58.4876L297.233 58.0807L297.223 58.0796L297.165 58.4876V58.4876ZM288.446 58.3898V57.9784H288.033V58.3898H288.446ZM283.086 82.0593V53.5703H282.259V82.0593H283.086V82.0593ZM282.673 53.9828H294.824V53.1589H282.673V53.9828V53.9828ZM294.824 53.9828C297.873 53.9828 300.025 54.244 301.329 54.7332L301.622 53.9627C300.169 53.4169 297.888 53.1589 294.824 53.1589V53.9828ZM301.334 54.7354C302.635 55.2079 303.676 56.054 304.461 57.2891L305.159 56.8478C304.281 55.467 303.099 54.4986 301.617 53.9605L301.334 54.7354ZM304.461 57.2891C305.247 58.5265 305.645 59.9451 305.645 61.5583H306.472C306.472 59.8017 306.038 58.2286 305.159 56.8478L304.461 57.2891V57.2891ZM305.645 61.5583C305.645 63.6084 305.044 65.275 303.86 66.5879L304.475 67.1383C305.813 65.653 306.472 63.7818 306.472 61.5572H305.645V61.5583ZM303.86 66.5857C302.684 67.8798 300.899 68.7248 298.452 69.0783L298.57 69.8943C301.142 69.523 303.128 68.618 304.473 67.1394L303.86 66.5857ZM298.303 69.8432C299.523 70.5514 300.516 71.3241 301.289 72.1557L301.896 71.5964C301.057 70.6937 299.995 69.8732 298.72 69.1305L298.303 69.8421V69.8432ZM301.292 72.159C302.08 72.995 303.16 74.5059 304.537 76.7195L305.241 76.2848C303.86 74.0668 302.744 72.4936 301.894 71.5942L301.292 72.159ZM304.538 76.7206L308.03 82.2783L308.73 81.8414L305.239 76.2825L304.538 76.7206V76.7206ZM308.38 81.6479H301.475V82.4717H308.38V81.6479ZM301.82 81.8302L297.645 75.631L296.958 76.0902L301.132 82.2894L301.82 81.8302V81.8302ZM297.646 75.6321C296.169 73.4242 295.135 71.9989 294.559 71.3974L293.959 71.9667C294.475 72.5059 295.47 73.8656 296.958 76.0891L297.646 75.6321V75.6321ZM294.561 71.4008C293.98 70.7804 293.346 70.3413 292.657 70.1067L292.39 70.8871C292.923 71.0684 293.446 71.4186 293.956 71.9633L294.561 71.4008V71.4008ZM292.664 70.11C291.982 69.8632 290.951 69.7543 289.617 69.7543V70.5792C290.934 70.5792 291.843 70.6904 292.382 70.8849L292.664 70.11V70.11ZM289.617 69.7543H288.446V70.5792H289.617V69.7543ZM288.033 70.1656V82.0593H288.86V70.1667H288.033V70.1656ZM288.446 81.6479H282.673V82.4717H288.446V81.6479ZM288.446 66.031H292.718V65.2071H288.446V66.031ZM292.718 66.031C294.107 66.031 295.242 66.002 296.121 65.942C296.985 65.8842 297.638 65.7953 298.04 65.6596L297.773 64.8792C297.485 64.977 296.929 65.0626 296.064 65.1204C294.95 65.1853 293.834 65.2142 292.718 65.2071V66.031V66.031ZM298.04 65.6596C298.783 65.4203 299.426 64.9409 299.867 64.2966L299.184 63.833C298.843 64.3292 298.347 64.6975 297.773 64.8792L298.04 65.6596ZM299.867 64.2966C300.313 63.644 300.523 62.8446 300.523 61.9274H299.696C299.696 62.719 299.516 63.346 299.184 63.833L299.867 64.2966V64.2966ZM300.523 61.9274C300.523 60.8913 300.241 60.0152 299.64 59.3404L299.02 59.8885C299.459 60.3799 299.696 61.0447 299.696 61.9274H300.523V61.9274ZM299.645 59.3481C299.063 58.6633 298.244 58.2486 297.233 58.0807L297.097 58.8934C297.957 59.0379 298.583 59.3748 299.014 59.8807L299.645 59.347V59.3481ZM297.223 58.0796C296.719 58.0096 295.278 57.9784 292.952 57.9784V58.8023C295.307 58.8023 296.676 58.8356 297.108 58.8956L297.223 58.0796ZM292.952 57.9784H288.446V58.8023H292.952V57.9784ZM288.033 58.3898V65.6196H288.86V58.3898H288.033V58.3898Z" fill="black" />
        <path d="M154.535 259.041H221.241V325.747H154.535V259.041Z" fill="white" />
        <path d="M202.013 264.6H173.763C166.214 264.6 160.094 270.72 160.094 278.269V306.519C160.094 314.068 166.214 320.188 173.763 320.188H202.013C209.562 320.188 215.682 314.068 215.682 306.519V278.269C215.682 270.72 209.562 264.6 202.013 264.6Z" fill="#F14635" />
        <path d="M186.815 273.713H188.074L188.097 273.736H188.596L188.62 273.761H188.929L188.952 273.785L189.048 273.761L189.356 273.833L189.451 273.809L189.475 273.833L189.855 273.857L190.021 273.905L190.33 273.929L190.472 273.977H190.614L190.733 274.024H190.876L191.137 274.097H191.256L191.659 274.217L191.849 274.241L192.016 274.313L192.063 274.289L192.395 274.409H192.443L192.585 274.434L192.87 274.554H192.918L193.037 274.601H193.131L193.179 274.649L193.464 274.722L193.915 274.914L194.189 274.985V275.034H194.272L194.391 275.105H194.438L194.699 275.202L194.841 275.297H194.912L195.008 275.37L195.127 275.394L195.506 275.61L195.531 275.585L195.577 275.634L196.171 275.922L196.504 276.138L196.611 276.162V276.21H196.67L197.216 276.57L197.347 276.618L197.358 276.666L197.394 276.655V276.69H197.431L198 277.098L198.083 277.123V277.171H198.119L198.321 277.291V277.339H198.357L198.748 277.627V277.675H198.784L199.128 277.939L199.164 278.011L199.235 278.035L199.58 278.324V278.371H199.615L200.138 278.875H200.173L200.232 278.972H200.268V279.007L200.435 279.152L200.47 279.212H200.506V279.26H200.552V279.295L200.671 279.392L201.158 279.956L201.217 279.992L201.336 280.16L201.324 280.196H201.372L201.432 280.256L201.455 280.34L201.597 280.448L201.835 280.796H201.882V280.833L202.5 281.649L202.559 281.853L202.584 281.829L202.619 281.865L202.595 281.889L202.63 281.925L202.737 282.009V282.057L202.952 282.345L203.45 283.21L203.711 283.738L203.699 283.775L203.759 283.81L204.091 284.531L204.079 284.566H204.114V284.603L204.233 284.866L204.221 284.903H204.257V284.939L204.447 285.347V285.396L204.827 286.427L204.875 286.692L205.017 287.052L205.041 287.268L205.112 287.412V287.532L205.183 287.796L205.172 287.833H205.207V287.916L205.373 288.636V288.805L205.444 289.021L205.469 289.454L205.54 289.717L205.563 290.197L205.611 290.462V290.774L205.634 290.798V291.255L205.659 291.278V292.599L205.634 292.623L205.611 293.439L205.563 293.704V293.752L205.54 294.184L205.492 294.352V294.495L205.469 294.52V294.664L205.444 294.688L205.35 295.385L205.302 295.505L205.254 295.841L205.207 295.936V296.056L204.898 297.209L204.804 297.425L204.756 297.665L204.637 297.93L204.589 298.145L204.281 298.938L203.972 299.563L203.924 299.731L203.485 300.559L203.45 300.571L203.474 300.619L202.856 301.664L202.808 301.675L202.833 301.7L202.785 301.747L202.737 301.867L202.571 302.06V302.108L202.025 302.876L201.348 303.705H201.313V303.669L201.099 303.476V303.441H201.064L200.742 302.996L200.078 301.892L200.054 301.795L199.651 301.075L199.057 299.778L199.08 299.755L199.033 299.706L198.677 298.818L198.558 298.385L198.51 298.338L198.487 298.194L198.416 298.05V298.002L198.273 297.594L198.202 297.257L198.06 296.826V296.681L198.012 296.609L197.988 296.416L197.941 296.321L197.916 296.056L197.87 295.961V295.816L197.774 295.433V295.265L197.799 295.24L197.751 295.192L197.68 294.784V294.592L197.655 294.568V294.304L197.608 294.16L197.584 292.791L197.703 292.383L197.952 291.915L197.988 291.903L197.964 291.878L198.012 291.83L198.083 291.65H198.131V291.59L198.961 290.497H199.009V290.462L199.294 290.149L199.389 289.994H199.436V289.957L199.733 289.634H199.769V289.597L199.841 289.561L199.864 289.465L199.935 289.429L200.019 289.321H200.054V289.285L200.541 288.745L200.6 288.709L201.384 287.82V287.785H201.432V287.748L201.503 287.64L201.574 287.605L201.693 287.4H201.74V287.352H201.788V287.316L201.954 287.124L202.001 287.004L202.31 286.572L202.452 286.284L202.476 286.164L202.548 286.067L202.642 285.635V285.107L202.571 284.866L202.346 284.495L202.013 284.278L201.8 284.23H201.752L201.704 284.255H201.491L201.253 284.35L200.885 284.615L200.291 285.515L200.22 285.707L200.03 285.947V286.007H199.983V286.079H199.935V286.139L199.757 286.344H199.722V286.404L199.448 286.704L198.76 287.304L198.653 287.352L198.593 287.448L198.38 287.592L198.357 287.568L198.321 287.605L198.19 287.76L197.644 288.096L197.608 288.085V288.145H197.573L197.145 288.385L196.837 288.481L196.789 288.529H196.741L196.409 288.601H196.361L196.243 288.576H196.195L196.053 288.529L195.97 288.445L195.899 288.325L195.874 288.036L195.946 287.7L196.017 287.58L196.089 287.34L196.16 287.268L196.231 287.052L196.635 286.355L196.682 286.212L197.061 285.587L197.323 284.999L197.37 284.986L197.347 284.915L197.418 284.746V284.506L197.442 284.483L197.418 284.435L197.442 284.338L197.323 283.955L197.05 283.655L196.837 283.534L196.67 283.51L196.576 283.462L196.053 283.438L195.577 283.534L195.364 283.63L195.28 283.618L195.245 283.678L194.984 283.798L194.747 283.99H194.699L194.319 284.35L194.236 284.375L193.975 284.758H193.927V284.795L193.572 285.336L193.524 285.347V285.396L193.239 285.971V286.044L193.12 286.332L193.072 286.572V287.004L193.096 287.075L193.12 287.292L193.263 287.7L193.334 287.796L193.357 287.988L193.428 288.156L193.453 288.445L193.476 288.468V288.756L193.453 288.805V288.853L193.428 288.973L193.31 289.213L193.085 289.489H193.049V289.525L193.001 289.609L192.61 289.922L192.134 290.234L191.755 290.425L191.208 290.642L190.614 290.81L190.116 290.905L189.19 290.954L189.166 290.93H188.929L188.216 290.882L187.599 290.762L186.934 290.497L186.4 290.089L186.067 289.574V289.501L185.973 289.333L185.925 289.093L185.877 289.045L185.592 288.108L185.545 288.06L185.236 287.172L185.26 287.148L185.212 287.1L184.832 286.187L184.69 285.947V285.864L184.619 285.827L184.547 285.635L184.192 285.095H184.144V285.059L184.096 284.975H184.048V284.926H184.013L183.895 284.783L183.74 284.686L183.68 284.591L183.122 284.146V284.11H183.087L182.956 284.015L182.896 283.918L182.838 283.882L182.647 283.666L182.434 283.305L182.386 282.922L182.411 282.897V282.73L182.457 282.682L182.434 282.585L182.482 282.514L182.528 282.297L182.743 281.865L183.028 281.457V281.409L183.289 281.096V281.049L183.621 280.593L183.645 280.496L183.811 280.233L184.048 279.608L184.096 279.175L184.073 279.127L184.096 279.104V278.984L183.977 278.612H183.93V278.575L183.799 278.395L183.634 278.275L183.253 278.155H182.779L182.232 278.275L181.734 278.491L181.496 278.659H181.413V278.707H181.377L180.891 279.067V279.115H180.855L180.795 279.212L180.701 279.235L180.594 279.38L180.534 279.415L180.036 280.065L179.846 280.485L179.798 280.496L179.821 280.58H179.775V280.688L179.679 281.073V281.769L179.75 282.129V282.177L179.821 282.442V282.562L179.894 282.754V283.185L179.869 283.234V283.282L179.798 283.546L179.608 283.895H179.56V283.93L179.371 284.183H179.323V284.218L179.228 284.278L179.05 284.495L179.014 284.483V284.531L178.931 284.615L178.895 284.603V284.651L178.765 284.783H178.73V284.819L178.266 285.336L178.23 285.347V285.396L177.922 285.995L177.708 286.812V286.98L177.661 287.1L177.637 287.508L177.59 287.725L177.494 289.477L177.519 289.525L177.494 289.549L177.471 290.174L177.447 290.197L177.423 290.557L177.352 290.822L177.329 291.086L177.258 291.302L177.186 291.71L177.114 291.855L176.996 292.359L176.83 292.815V292.911L176.782 293.007L176.639 293.679L176.568 294.808L176.593 294.832V295.36L176.664 295.768V295.816L176.687 296.033L176.758 296.249V296.369L177.139 297.762V297.882L177.186 298.002L177.21 298.218L177.258 298.338V298.482L177.329 298.746L177.375 299.275L177.423 299.443V299.683L177.471 299.875L177.494 300.451L177.519 300.476L177.542 301.532L177.566 301.555V302.252L177.542 302.275V302.948L177.519 302.973V303.26L177.494 303.285L177.519 303.333L177.471 303.548V303.813L177.423 304.005V304.221L177.352 304.533V304.581L177.304 304.774V304.821L177.258 305.182L177.067 305.95V306.07L176.877 306.658L176.83 306.67L176.853 306.695L176.817 306.73H176.771L176.319 306.395L175.809 305.974L175.82 305.938L175.702 305.89L175.381 305.625V305.554H175.333V305.517L175.298 305.482L175.274 305.505L175.203 305.434L175.001 305.277L174.918 305.169L174.325 304.593H174.289L173.968 304.209H173.932V304.173L173.742 303.945H173.695V303.909L173.458 303.621L173.47 303.585H173.422L173.363 303.525L172.912 302.973L172.793 302.768H172.745V302.732L172.579 302.516L172.555 302.432H172.508V302.396L171.7 301.171L170.964 299.778L171.035 299.755L170.999 299.718L170.976 299.743H170.941V299.706L170.798 299.395L170.809 299.358H170.774V299.323L170.395 298.458L170.37 298.314L170.323 298.265L170.205 297.857L170.109 297.665L170.014 297.377L169.991 297.185L169.872 296.897V296.801L169.586 295.745L169.563 295.48L169.444 295L169.421 294.664L169.397 294.64V294.495L169.35 294.327V294.112L169.302 293.895V293.847L169.278 293.464L169.254 293.439V293.103L169.231 293.079V292.551L169.207 292.526V291.302L169.231 291.278V290.798L169.254 290.774V290.462L169.302 290.197V289.885L169.373 289.597L169.35 289.525L169.469 288.901V288.853L169.515 288.636V288.589L169.54 288.373L169.634 288.06V287.916L169.824 287.268V287.148L169.872 287.075L170.205 285.947L170.276 285.827V285.779L170.347 285.539L170.418 285.419V285.347L170.631 284.891V284.819L170.869 284.363L170.893 284.243L170.964 284.17V284.123L171.118 283.798L171.143 283.846L171.178 283.786L171.131 283.762L171.392 283.27L171.44 283.258L171.415 283.21L171.961 282.274L172.222 281.914L172.27 281.781H172.318V281.745L172.579 281.349L172.65 281.336L172.626 281.313L172.674 281.265L173.006 280.773H173.054V280.736L173.232 280.508L173.292 280.496V280.448L173.327 280.388H173.363V280.353L173.41 280.268H173.458V280.233L173.553 280.1H173.6V280.065L173.968 279.644H174.003V279.608L174.289 279.32V279.284L174.36 279.247V279.212H174.407V279.164H174.443L174.479 279.092H174.526V279.044H174.562L174.597 278.972L175.001 278.635V278.587H175.036L175.073 278.515L175.381 278.299L175.464 278.179L175.678 278.011L175.726 278.035V277.987L175.761 277.999V277.951L175.82 277.891L176.152 277.603H176.212V277.555H176.248L176.403 277.459V277.411H176.438L176.842 277.098H176.901L176.936 277.026L177.103 276.906L177.304 276.835L177.364 276.738L178.433 276.066L179.739 275.394L179.929 275.345L180.285 275.154L180.308 275.177L180.356 275.13L181.14 274.817L181.282 274.794L181.52 274.674L181.852 274.601L182.446 274.385H182.541L183.205 274.193H183.253L184.084 274.001H184.132L184.535 273.929H184.75L185.01 273.857H185.224L185.248 273.833L185.676 273.809L185.913 273.761H185.96L186.791 273.736L186.815 273.713V273.713ZM177.898 276.426L177.875 276.475H177.922L177.898 276.426V276.426ZM183.122 283.798V283.87L183.17 283.846V283.798H183.122ZM200.838 284.591V284.638L200.885 284.615L200.838 284.591ZM198.771 290.81L198.748 290.858H198.796L198.771 290.81V290.81ZM203.83 299.503V299.551H203.878V299.503H203.83ZM171.938 301.424L171.961 301.472V301.424H171.938Z" fill="white" />
        <path d="M187.052 293.307H187.623L187.646 293.331H187.907L187.932 293.356L188.359 293.404L188.454 293.451L188.668 293.476L189.095 293.596L189.356 293.715L189.38 293.692L189.427 293.739L189.759 293.859L190.045 294.052L190.068 294.027L190.14 294.1L190.353 294.22L190.721 294.544V294.604H190.792V294.64L191.126 295.025L191.244 295.216L191.268 295.325H191.315V295.36L191.458 295.625L191.529 295.841V295.936L191.624 296.056L191.647 296.225L191.695 296.321L191.791 296.849L191.837 296.969L191.933 297.689L191.921 297.725L191.956 297.737V297.882L192.052 298.314L192.027 298.362L192.099 298.65V298.818L192.146 299.035V299.082L192.241 299.778L192.289 299.899V300.066L192.336 300.186V300.427L192.431 300.859L192.502 301.555L192.621 302.228L192.598 302.275L192.646 302.42L192.669 302.756L192.717 302.925V303.116L192.763 303.308V303.501L192.811 303.669L192.788 303.716L192.811 303.741L192.835 304.149L192.906 304.486V304.749L192.93 304.774V304.989L192.978 305.205V305.542L193.001 305.565V305.758L193.049 305.974V306.335L193.072 306.358V306.695L193.096 306.718L193.072 306.743V306.91L193.096 306.935V307.943L193.072 307.991V308.039L193.049 308.424L192.978 308.591V308.639L192.823 308.916L192.763 308.952L192.562 309.18L192.491 309.227L192.159 309.467L192.052 309.492V309.54H191.992L191.683 309.684H191.54L191.327 309.755L190.852 309.852H190.71L190.614 309.9L190.353 309.924L190.211 309.972L190.163 309.948L189.784 310.02H189.736L189.451 310.068L189.404 310.044L189.38 310.068H189.19L188.976 310.116H188.62L188.596 310.14L187.052 310.165H186.934L186.554 310.02L186.138 309.804V309.755H186.079L186.008 309.66L185.984 309.684L185.735 309.432L185.545 309.12L185.568 309.095L185.497 309.024L185.307 308.496L185.189 308.016V307.895L185.118 307.703L185.141 307.655L185.093 307.511V307.343L185.022 306.958V306.91L184.951 305.95L184.928 305.925L184.951 305.83L184.928 305.805V305.397L184.903 305.374L184.88 303.308L184.856 303.285V298.025L184.88 298.002L184.903 297.089L184.928 297.066V296.801L184.951 296.777V296.729L184.999 296.153L185.118 295.6V295.48L185.189 295.288L185.212 295.096L185.26 295.048L185.307 294.808L185.402 294.555H185.45V294.495L185.783 293.932H185.829V293.884H185.877V293.847L186.174 293.596L186.554 293.404L187.052 293.307V293.307ZM192.692 308.939V308.987L192.74 308.964L192.692 308.939ZM180.712 300.175L180.76 300.199H180.855L180.985 300.246L181.128 300.451V300.499L181.104 300.523L181.199 300.619L181.223 300.667L181.199 300.691L181.247 300.739L181.366 301.051V301.099L181.508 301.604L181.602 302.204L181.65 302.3V302.492L181.721 302.78V302.973L181.769 303.14V303.381L181.84 303.741L181.864 304.221L181.888 304.244V304.293L181.911 304.725L181.935 304.749V305.037L181.959 305.062V305.565L181.983 305.59V305.83L182.007 305.854L182.03 307.318L182.007 307.439V307.486L182.03 307.535L182.007 307.559V307.871L181.959 308.087V308.303L181.864 308.735L181.746 308.999L181.615 309.18L181.567 309.204L180.582 308.844L180.415 308.519L180.32 308.207V308.159L180.273 308.063L180.249 307.847L180.178 307.606L180.202 307.559L180.13 307.415V307.366L180.083 307.078V307.031L180.059 306.67L179.988 306.31L180.011 306.238L179.988 306.214V305.83L179.965 305.805V305.445L179.94 305.422V303.669L179.965 303.645V303.093L180.011 302.852L179.988 302.78L180.011 302.756V302.516L180.059 302.3V302.035L180.107 301.867L180.13 301.58L180.178 301.459V301.339L180.368 300.643L180.534 300.319H180.582V300.283L180.712 300.175V300.175ZM195.838 300.559L195.934 300.583L196.005 300.559L196.373 300.703V300.751H196.409L196.777 301.099L196.825 301.171L196.896 301.279H196.944V301.315L197.015 301.447H197.061V301.484L197.323 301.844L197.751 302.588L198.083 303.26L198.106 303.381L198.178 303.476L198.439 304.173L198.416 304.221H198.463L198.51 304.317L198.487 304.341L198.535 304.389L198.581 304.557L198.57 304.593H198.606V304.654L198.7 304.894L198.677 304.941L198.725 305.014L198.796 305.302L198.819 305.734L198.771 305.83L198.748 306.034L198.7 306.045V306.094L198.629 306.346L198.463 306.418V306.466H198.428L197.62 307.066L196.741 307.619L196.551 307.691H196.385L196.325 307.666L196.314 307.619L196.267 307.643L196.112 307.511L196.135 307.439L196.041 307.366L195.827 306.838V306.766L195.78 306.718L195.756 306.55L195.685 306.382V306.286L195.614 306.118L195.589 305.878L195.518 305.71V305.565L195.47 305.445L195.447 305.134L195.376 304.821V304.629L195.328 304.461L195.353 304.366L195.305 304.197V303.933L195.281 303.909V303.645L195.257 303.621V303.093L195.234 303.068V302.9L195.257 302.876V302.108L195.281 302.084L195.305 301.627L195.353 301.507L195.376 301.244L195.447 301.099V301.027L195.495 300.979V300.907L195.649 300.679H195.685V300.643L195.838 300.559V300.559Z" fill="white" />
        <path d="M369.106 0.555908H8.89414C4.28906 0.555908 0.555908 4.28906 0.555908 8.89414V530.312C0.555908 534.917 4.28906 538.65 8.89414 538.65H369.106C373.711 538.65 377.444 534.917 377.444 530.312V8.89414C377.444 4.28906 373.711 0.555908 369.106 0.555908Z" stroke="#9B9B9B" stroke-width="1.1134" stroke-dasharray="5.57 5.57" />
    </g>
    <defs>
        <clipPath id="clip0_144_255">
            <rect width="378" height="539.206" fill="white" />
        </clipPath>
    </defs>
</svg>